<svg width="720" height="640" viewBox="0 0 720 640" fill="none" xmlns="http://www.w3.org/2000/svg">
  <rect width="720" height="640" fill="#F5F7F4"/>
  <rect x="44" y="44" width="632" height="552" rx="34" fill="url(#paint0_linear)"/>
  <circle cx="360" cy="214" r="118" fill="#F4C542" opacity="0.16"/>
  <circle cx="360" cy="204" r="82" fill="#115440"/>
  <path d="M180 562V537C216 498.333 267.333 479 334 479C400.667 479 463 500.333 521 543V562H180Z" fill="#115440"/>
  <path d="M224 180C240.667 153.333 265.333 131.667 298 115C330.667 98.3333 365 90 401 90C456.333 90 505.333 111 548 153" stroke="#F4C542" stroke-width="10" stroke-linecap="round" stroke-dasharray="2 20"/>
  <text x="360" y="280" fill="white" font-family="Manrope, sans-serif" font-size="44" font-weight="800" text-anchor="middle">CK</text>
  <text x="360" y="608" fill="#0B3D2E" font-family="Manrope, sans-serif" font-size="26" font-weight="800" text-anchor="middle">Co-Founder Portrait Placeholder</text>
  <defs>
    <linearGradient id="paint0_linear" x1="360" y1="44" x2="360" y2="596" gradientUnits="userSpaceOnUse">
      <stop stop-color="#FFFFFF"/>
      <stop offset="1" stop-color="#EEF3EF"/>
    </linearGradient>
  </defs>
</svg>
