<svg width="720" height="640" viewBox="0 0 720 640" fill="none" xmlns="http://www.w3.org/2000/svg">
  <rect width="720" height="640" fill="#F5F7F4"/>
  <rect x="44" y="44" width="632" height="552" rx="34" fill="url(#paint0_linear)"/>
  <circle cx="360" cy="214" r="118" fill="#0B3D2E" opacity="0.12"/>
  <circle cx="360" cy="204" r="82" fill="#0B3D2E"/>
  <path d="M266 494C274 396.667 338.667 348 460 348C488.333 348 515 351.667 540 359V562H180V523C198 503 226.667 493.333 266 494Z" fill="#0B3D2E"/>
  <path d="M231 163C250.333 140.333 276 122.333 308 109C340 95.6667 372.333 89 405 89C460.333 89 506 108.667 542 148" stroke="#F4C542" stroke-width="10" stroke-linecap="round" stroke-dasharray="2 20"/>
  <text x="360" y="280" fill="white" font-family="Manrope, sans-serif" font-size="44" font-weight="800" text-anchor="middle">SS</text>
  <text x="360" y="608" fill="#0B3D2E" font-family="Manrope, sans-serif" font-size="26" font-weight="800" text-anchor="middle">Founder Portrait Placeholder</text>
  <defs>
    <linearGradient id="paint0_linear" x1="360" y1="44" x2="360" y2="596" gradientUnits="userSpaceOnUse">
      <stop stop-color="#FFFFFF"/>
      <stop offset="1" stop-color="#EEF3EF"/>
    </linearGradient>
  </defs>
</svg>
