<?xml version="1.0" encoding="UTF-8"?>
<svg version="1.1" xmlns="http://www.w3.org/2000/svg" width="512" height="300">
<path d="M0 0 C0.92876953 -0.02384766 1.85753906 -0.04769531 2.81445312 -0.07226562 C12.01449046 -0.05289713 18.73630251 3.85421274 25.43359375 9.9765625 C29.93611916 14.72468021 31.62268845 19.49062646 32.0390625 26.00390625 C31.78685022 32.35771573 29.52431817 38.10673378 24.9375 42.5625 C20.43243642 45.53174645 16.24817549 46.43425239 10.9375 45.5625 C4.28934266 43.50596884 -0.72768578 38.88878769 -5.0625 33.5625 C-5.0625 32.9025 -5.0625 32.2425 -5.0625 31.5625 C-8.33348946 31.62791979 -11.02661069 31.68290334 -13.60620117 33.87329102 C-17.45356186 38.40709669 -19.96071076 42.96735248 -22.25 48.4375 C-22.57935547 49.18902344 -22.90871094 49.94054687 -23.24804688 50.71484375 C-26.72622766 58.7775849 -29.29516017 67.00571392 -31.3671875 75.53125 C-31.57132263 76.3605603 -31.77545776 77.18987061 -31.98577881 78.04431152 C-32.64111613 80.71590356 -33.28987309 83.38902918 -33.9375 86.0625 C-34.27331085 87.44091064 -34.27331085 87.44091064 -34.61590576 88.84716797 C-37.40675461 100.31907684 -40.02587355 111.78956652 -42.22338867 123.3918457 C-43.95965752 132.41141421 -46.0822679 141.32635987 -48.25 150.25 C-48.42484924 150.9730835 -48.59969849 151.69616699 -48.77984619 152.44116211 C-51.90600229 165.33807689 -51.90600229 165.33807689 -54.0625 171.5625 C-52.54849609 171.47548828 -52.54849609 171.47548828 -51.00390625 171.38671875 C-33.26193821 170.7090814 -15.97977366 174.83033756 0.94921875 179.86328125 C4.04709387 180.58814353 6.76770172 180.69081267 9.9375 180.5625 C12.07439718 176.36557245 11.9174303 174.14603133 10.5625 169.6875 C8.46769037 162.04705595 7.96849482 156.70670933 11.9375 149.5625 C14.74841368 146.25967642 16.28195357 144.91942973 20.4921875 144.01171875 C25.67417965 143.64567775 29.24601411 144.18061767 33.375 147.4375 C40.68385182 155.03150209 41.60967962 163.43561923 41.546875 173.58837891 C41.25854958 180.58997357 39.53811586 185.19511483 34.9375 190.5625 C34.33421875 191.34882813 33.7309375 192.13515625 33.109375 192.9453125 C27.16211275 200.27059893 19.99683013 204.94274742 10.9375 207.5625 C5.84690222 208.01359921 0.73355369 207.9482759 -4.375 207.9375 C-5.48773788 207.93917679 -5.48773788 207.93917679 -6.62295532 207.94088745 C-20.78093781 207.93048537 -34.57043788 206.49894371 -48.57421875 204.53515625 C-70.81731111 201.46524065 -91.92907295 202.36994755 -114.0625 205.5625 C-116.3725 205.8925 -118.6825 206.2225 -121.0625 206.5625 C-119.4125 198.3125 -117.7625 190.0625 -116.0625 181.5625 C-102.0625 177.5625 -102.0625 177.5625 -98.22265625 176.7421875 C-94.96604116 175.90225293 -94.96604116 175.90225293 -93.8046875 173.44921875 C-93.55976563 172.49660156 -93.31484375 171.54398438 -93.0625 170.5625 C-92.61542196 169.29509212 -92.15881894 168.03102374 -91.6953125 166.76953125 C-88.01104451 156.14923891 -85.28048408 145.57292276 -83.0625 134.5625 C-65.20017131 46.03478319 -65.20017131 46.03478319 -42.0625 20.5625 C-41.12857422 19.48935547 -41.12857422 19.48935547 -40.17578125 18.39453125 C-29.71274906 7.05409594 -15.41457468 -0.18261169 0 0 Z " fill="#146AB1" transform="translate(455.0625,31.4375)"/>
<path d="M0 0 C0.99 0.495 0.99 0.495 2 1 C2.58954666 3.06494065 3.09305128 5.15448979 3.5625 7.25 C8.34543148 26.66335563 17.82266559 44.98908474 31 60 C32.08861328 61.24910156 32.08861328 61.24910156 33.19921875 62.5234375 C47.19769829 77.56312626 67.72596137 85.78817331 88.0625 87.21484375 C107.7474135 87.80633754 125.49972356 80.96356236 140 68 C144.70742393 63.52485028 148.16779319 58.95076805 151.22265625 53.21484375 C151.74738525 52.23507568 152.27211426 51.25530762 152.81274414 50.24584961 C153.20453857 49.50471924 153.59633301 48.76358887 154 48 C153.13342522 47.99120064 153.13342522 47.99120064 152.24934387 47.98222351 C146.23060537 47.91823646 140.21239895 47.83380307 134.1940918 47.73754883 C131.9487205 47.70431649 129.703266 47.67627931 127.45776367 47.65356445 C124.22799257 47.61998798 120.99898273 47.56766927 117.76953125 47.51171875 C116.76727005 47.50532883 115.76500885 47.4989389 114.7323761 47.49235535 C105.73693847 47.30305324 105.73693847 47.30305324 102 44 C99 39 99 39 99 9 C134.64 9 170.28 9 207 9 C204.66817132 31.15237245 204.66817132 31.15237245 202.375 38.1875 C202.11702637 39.00790771 201.85905273 39.82831543 201.59326172 40.67358398 C195.91654771 57.96997898 186.42226352 71.78058588 174 85 C173.41089844 85.67675781 172.82179687 86.35351562 172.21484375 87.05078125 C160.89655475 99.46358611 144.69919184 106.05418489 129 111 C128.32590088 111.21350098 127.65180176 111.42700195 126.95727539 111.64697266 C119.96719499 113.52291011 112.74901329 113.3721697 105.5637207 113.37060547 C103.33400823 113.37495801 101.10631445 113.41131198 98.87695312 113.44921875 C89.19534056 113.52524849 81.21384347 112.17651509 72 109 C70.56534309 108.56041739 69.13048976 108.12147451 67.6953125 107.68359375 C47.07763628 100.48770894 30.21958332 85.90759449 18 68 C17.39800781 67.17628906 16.79601562 66.35257812 16.17578125 65.50390625 C12.15148485 59.70711076 9.38833693 53.57439799 6.75 47.0625 C6.42056396 46.25232422 6.09112793 45.44214844 5.75170898 44.60742188 C1.45841855 33.60360104 -0.4596438 23.57081016 -0.1875 11.75 C-0.17396484 10.61175781 -0.16042969 9.47351563 -0.14648438 8.30078125 C-0.11160054 5.53333013 -0.06259317 2.76693895 0 0 Z " fill="#105CAC" transform="translate(15,126)"/>
<path d="M0 0 C6.4954173 5.63378031 11.8084696 10.46683678 12.6796875 19.32421875 C11.98696227 23.74034211 10.27421379 26.69600894 6.62109375 29.3984375 C1.27573696 31.94743057 -4.18024795 30.99157768 -9.65234375 29.28515625 C-16.64623917 26.4750389 -22.75067619 22.91686079 -28.97729492 18.73071289 C-33.30204982 15.86192437 -37.73609643 13.50163528 -42.4453125 11.32421875 C-43.07300537 11.03361572 -43.70069824 10.7430127 -44.34741211 10.44360352 C-49.88814837 7.95046079 -54.19939037 6.87906078 -60.3203125 7.32421875 C-62.32516026 8.49305981 -62.32516026 8.49305981 -63.3203125 10.32421875 C-63.3203125 11.31421875 -63.3203125 12.30421875 -63.3203125 13.32421875 C-62.65644531 13.41058594 -61.99257812 13.49695313 -61.30859375 13.5859375 C-57.00192192 14.27123272 -53.91410692 14.92431639 -50.2578125 17.38671875 C-47.66350272 21.32002713 -46.92797185 24.63318924 -47.3203125 29.32421875 C-48.82974334 32.63059107 -50.19580651 33.85220389 -53.53515625 35.25390625 C-60.65843031 37.55881773 -67.50036331 38.37989255 -74.9453125 38.26171875 C-90.51866135 38.24220328 -104.80927872 41.69303715 -116.3828125 52.63671875 C-120.71444685 57.40151654 -124.09199319 62.77067909 -127.3203125 68.32421875 C-126.42391266 67.28303955 -125.52823087 66.24124214 -124.6328125 65.19921875 C-124.07722656 64.55984375 -123.52164063 63.92046875 -122.94921875 63.26171875 C-121.58116835 61.63449334 -120.31248229 59.92445457 -119.0703125 58.19921875 C-114.65877447 53.58715626 -109.36637135 50.85142124 -103.0703125 49.76171875 C-98.7756159 50.64017942 -95.65876567 52.62073289 -92.9453125 56.07421875 C-91.29088317 62.03016434 -91.79485903 65.98926097 -94.7578125 71.32421875 C-97.69783927 75.89603072 -101.21164628 79.18674283 -105.46484375 82.53515625 C-107.48359954 84.48166183 -107.95245326 85.58638113 -108.3203125 88.32421875 C-107.5571875 88.75734375 -106.7940625 89.19046875 -106.0078125 89.63671875 C-100.6328125 93.01171875 -100.6328125 93.01171875 -99.6953125 96.94921875 C-100.513128 101.36542248 -102.62692311 103.70369161 -105.49609375 107.078125 C-110.35578247 113.06168177 -111.0865319 117.80411851 -110.79296875 125.41015625 C-109.61302858 135.18123102 -103.37920628 143.04916807 -97.859375 150.92578125 C-96.3203125 153.32421875 -96.3203125 153.32421875 -96.3203125 155.32421875 C-111.80130221 149.68741239 -123.77900194 134.10722927 -130.6328125 119.69921875 C-134.03097289 112.16483598 -134.60976514 104.41477451 -134.4453125 96.26171875 C-134.43628906 95.39611328 -134.42726563 94.53050781 -134.41796875 93.63867188 C-134.39470973 91.53373096 -134.35885258 89.42893533 -134.3203125 87.32421875 C-135.3593503 91.75104366 -135.63624201 96.11356507 -135.8828125 100.63671875 C-135.92599609 101.37728516 -135.96917969 102.11785156 -136.01367188 102.88085938 C-136.11901682 104.69513339 -136.22009566 106.50965425 -136.3203125 108.32421875 C-139.3203125 107.32421875 -139.3203125 107.32421875 -140.34765625 105.56640625 C-149.98421492 80.503082 -151.22407383 56.28966137 -140.3203125 31.32421875 C-133.41136763 17.90422636 -122.66809624 7.71265879 -110.3203125 -0.67578125 C-109.5571875 -1.2171875 -108.7940625 -1.75859375 -108.0078125 -2.31640625 C-77.46283053 -22.46760963 -29.42083746 -22.50503021 0 0 Z M-129.3203125 70.32421875 C-128.3203125 72.32421875 -128.3203125 72.32421875 -128.3203125 72.32421875 Z M-130.3203125 72.32421875 C-129.3203125 74.32421875 -129.3203125 74.32421875 -129.3203125 74.32421875 Z M-131.3203125 74.32421875 C-130.3203125 76.32421875 -130.3203125 76.32421875 -130.3203125 76.32421875 Z M-132.3203125 77.32421875 C-131.3203125 80.32421875 -131.3203125 80.32421875 -131.3203125 80.32421875 Z M-133.3203125 80.32421875 C-132.3203125 84.32421875 -132.3203125 84.32421875 -132.3203125 84.32421875 Z " fill="#1980B9" transform="translate(167.3203125,48.67578125)"/>
<path d="M0 0 C3.53731097 2.81342005 6.79969166 5.81100017 10 9 C10.84691406 9.81210938 10.84691406 9.81210938 11.7109375 10.640625 C22.64584658 22.09624404 27.35456719 39.5871542 27.2265625 55.01171875 C26.74936017 61.30585294 25.52352064 67.71471904 22 73 C22.66 73.66 23.32 74.32 24 75 C23 78 23 78 21 81 C18.62411967 84.82144388 18.62411967 84.82144388 18.25 89.125 C18.62125 90.053125 18.62125 90.053125 19 91 C19.33333333 92.33333333 19.66666667 93.66666667 20 95 C18.68 95 17.36 95 16 95 C15.34 94.34 14.68 93.68 14 93 C13.3915625 93.6290625 12.783125 94.258125 12.15625 94.90625 C-1.12645807 107.87642376 -15.67880608 113.35298542 -34.1875 113.4375 C-35.43853516 113.47037109 -36.68957031 113.50324219 -37.97851562 113.53710938 C-55.01011583 113.63463546 -68.162627 105.21705462 -80.00390625 93.52734375 C-82.19721759 90.75029397 -82.99623508 88.36583557 -84 85 C-85.31866272 83.321702 -86.65080468 81.65385233 -88 80 C-88.75 77.6875 -88.75 77.6875 -89 76 C-84.25 77.875 -84.25 77.875 -82 79 C-82.76828125 78.46375 -83.5365625 77.9275 -84.328125 77.375 C-87.32376066 74.71221275 -88.32124 72.71106493 -89.75 69 C-90.15734375 67.96875 -90.5646875 66.9375 -90.984375 65.875 C-95.36450208 53.47587105 -94.49216507 37.83344776 -89 26 C-88.649375 25.14535156 -88.29875 24.29070312 -87.9375 23.41015625 C-84.86303088 16.48192549 -80.31575649 11.33374551 -75 6 C-74.37222656 5.34902344 -73.74445313 4.69804687 -73.09765625 4.02734375 C-53.71833535 -14.6144977 -21.46713468 -14.5911953 0 0 Z M-63.81640625 24.1015625 C-65.39170756 26.33620044 -66.71879584 28.58573091 -68 31 C-68.4125 31.72574219 -68.825 32.45148438 -69.25 33.19921875 C-73.47184159 41.83347117 -73.38326522 52.19427628 -71.1875 61.41015625 C-68.45930607 68.75165033 -63.23761481 77.38119259 -56 81 C-55.67 81.99 -55.34 82.98 -55 84 C-61.27 83.67 -67.54 83.34 -74 83 C-66.08917647 86.95541176 -56.12741671 85.95952486 -47.81176758 83.35375977 C-42.6734119 81.58613432 -37.82396621 79.49995817 -33 77 C-33.70125 76.38125 -34.4025 75.7625 -35.125 75.125 C-39.4060468 70.88064789 -42.32074425 65.3585115 -45 60 C-50.49850367 61.66233832 -54.74287574 63.11431361 -58 68 C-59.98 67.67 -61.96 67.34 -64 67 C-64.495 65.515 -64.495 65.515 -65 64 C-64.25878906 63.90589844 -63.51757812 63.81179687 -62.75390625 63.71484375 C-59.59548408 62.894998 -58.27543343 61.79817789 -55.9375 59.5625 C-53.38873833 57.1449617 -51.16540787 55.50638907 -48 54 C-45.48163975 51.48163975 -45.02091094 50.36245621 -44.8125 46.75 C-44.874375 45.8425 -44.93625 44.935 -45 44 C-42.69 44 -40.38 44 -38 44 C-37.505 46.475 -37.505 46.475 -37 49 C-35.906875 49.20625 -34.81375 49.4125 -33.6875 49.625 C-32.470625 50.07875 -31.25375 50.5325 -30 51 C-29.5875 51.928125 -29.175 52.85625 -28.75 53.8125 C-26.01368402 58.79650411 -21.21325212 60.15618939 -16 62 C-15.34 62 -14.68 62 -14 62 C-13.505 63.98 -13.505 63.98 -13 66 C-6.30324864 67.03026944 0.2314676 67.10152799 7 67 C5.68 66.01 4.36 65.02 3 64 C3.2165625 63.10861328 3.2165625 63.10861328 3.4375 62.19921875 C6.1721726 49.98814597 5.89388121 38.5675374 -0.47265625 27.421875 C-6.26975596 19.36349526 -15.04968514 12.62929132 -25 11 C-39.69583591 9.77022294 -53.6876677 12.38272091 -63.81640625 24.1015625 Z M-32 66 C-32 67.32 -32 68.64 -32 70 C-29.58119071 72.26877535 -29.58119071 72.26877535 -27 74 C-25.02 73.01 -23.04 72.02 -21 71 C-24.36836083 66.93362801 -24.36836083 66.93362801 -29.3125 65.6875 C-30.199375 65.790625 -31.08625 65.89375 -32 66 Z M-9.875 79.23046875 C-10.86113281 79.70419922 -11.84726562 80.17792969 -12.86328125 80.66601562 C-13.89839844 81.16810547 -14.93351562 81.67019531 -16 82.1875 C-17.00417969 82.67025391 -18.00835937 83.15300781 -19.04296875 83.65039062 C-30.29852014 88.82779257 -30.29852014 88.82779257 -41 95 C-39.10424749 95.02721176 -37.20838021 95.04649136 -35.3125 95.0625 C-34.25675781 95.07410156 -33.20101562 95.08570313 -32.11328125 95.09765625 C-29.27589738 95.00865425 -26.7561081 94.64939838 -24 94 C-24.66 93.34 -25.32 92.68 -26 92 C-23.8152247 90.72428516 -21.62738381 89.45439327 -19.4375 88.1875 C-18.52387695 87.65286133 -18.52387695 87.65286133 -17.59179688 87.10742188 C-14.49411706 85.32092928 -11.4407993 83.72101754 -8.125 82.375 C-4.91318002 81.29983583 -4.91318002 81.29983583 -3.5625 78.8125 C-3.2840625 77.9153125 -3.2840625 77.9153125 -3 77 C-5.72594907 77 -7.41822971 78.04547764 -9.875 79.23046875 Z " fill="#22A7C7" transform="translate(315,126)"/>
<path d="M0 0 C5.14034357 7.71051536 5.04493941 19.38429335 3.39453125 28.25390625 C1.49836601 36.25245098 1.49836601 36.25245098 -1 40 C-0.34 40.66 0.32 41.32 1 42 C0 45 0 45 -2 48 C-4.37588033 51.82144388 -4.37588033 51.82144388 -4.75 56.125 C-4.5025 56.74375 -4.255 57.3625 -4 58 C-3.66666667 59.33333333 -3.33333333 60.66666667 -3 62 C-4.32 62 -5.64 62 -7 62 C-7.66 61.34 -8.32 60.68 -9 60 C-9.6084375 60.6290625 -10.216875 61.258125 -10.84375 61.90625 C-24.12645807 74.87642376 -38.67880608 80.35298542 -57.1875 80.4375 C-58.43853516 80.47037109 -59.68957031 80.50324219 -60.97851562 80.53710938 C-78.01011583 80.63463546 -91.162627 72.21705462 -103.00390625 60.52734375 C-105.19721759 57.75029397 -105.99623508 55.36583557 -107 52 C-108.31866272 50.321702 -109.65080468 48.65385233 -111 47 C-111.75 44.6875 -111.75 44.6875 -112 43 C-107.69235185 44.56641751 -103.93828536 46.68336156 -100 49 C-100.56371414 45.73045798 -101.49962266 44.17424117 -104 42 C-99.14036821 42.60745397 -95.2594482 44.72758967 -91 47 C-91.33 48.32 -91.66 49.64 -92 51 C-80.19780966 51.7533313 -67.49267415 51.03226274 -58 43 C-58.47050781 42.49210937 -58.94101562 41.98421875 -59.42578125 41.4609375 C-68 31.98136646 -68 31.98136646 -68 27 C-69.61013585 27.73709784 -71.21292391 28.49025857 -72.8125 29.25 C-73.70582031 29.66765625 -74.59914063 30.0853125 -75.51953125 30.515625 C-78.10928331 32.06539789 -79.38180834 33.48400766 -81 36 C-82.98 35.67 -84.96 35.34 -87 35 C-87.33 33.68 -87.66 32.36 -88 31 C-87.154375 30.62875 -86.30875 30.2575 -85.4375 29.875 C-82.00949573 28.00517949 -79.52787106 25.96292058 -76.7109375 23.3046875 C-74.80739558 21.85312814 -73.30544891 21.52682166 -71 21 C-68.85150175 17.9468709 -68.49698389 14.64454851 -68 11 C-65.6875 10.3125 -65.6875 10.3125 -63 10 C-61.1875 11.25 -61.1875 11.25 -60 13 C-60 13.99 -60 14.98 -60 16 C-58.906875 16.04125 -57.81375 16.0825 -56.6875 16.125 C-55.470625 16.41375 -54.25375 16.7025 -53 17 C-52.56558594 17.94359375 -52.13117188 18.8871875 -51.68359375 19.859375 C-49.51470766 23.90527851 -47.59362088 24.48806285 -43.375 26.125 C-39.8359375 27.5078125 -39.8359375 27.5078125 -37 29 C-36.1015625 31.1796875 -36.1015625 31.1796875 -36 33 C-34.9378125 32.98839844 -33.875625 32.97679687 -32.78125 32.96484375 C-18.84328379 32.8594527 -18.84328379 32.8594527 -12 34 C-11.34 33.01 -10.68 32.02 -10 31 C-7.69 31.99 -5.38 32.98 -3 34 C0.04294537 26.46851055 0.36909992 20.0070553 0.1875 11.9375 C0.17396484 10.78572266 0.16042969 9.63394531 0.14648438 8.44726562 C0.11142725 5.63101028 0.06228856 2.81576235 0 0 Z M-55 33 C-55 34.32 -55 35.64 -55 37 C-52.58119071 39.26877535 -52.58119071 39.26877535 -50 41 C-48.02 40.01 -46.04 39.02 -44 38 C-47.36836083 33.93362801 -47.36836083 33.93362801 -52.3125 32.6875 C-53.199375 32.790625 -54.08625 32.89375 -55 33 Z M-32.875 46.23046875 C-33.86113281 46.70419922 -34.84726562 47.17792969 -35.86328125 47.66601562 C-36.89839844 48.16810547 -37.93351562 48.67019531 -39 49.1875 C-40.00417969 49.67025391 -41.00835937 50.15300781 -42.04296875 50.65039062 C-53.29852014 55.82779257 -53.29852014 55.82779257 -64 62 C-62.10424749 62.02721176 -60.20838021 62.04649136 -58.3125 62.0625 C-57.25675781 62.07410156 -56.20101562 62.08570313 -55.11328125 62.09765625 C-52.27589738 62.00865425 -49.7561081 61.64939838 -47 61 C-47.66 60.34 -48.32 59.68 -49 59 C-46.8152247 57.72428516 -44.62738381 56.45439327 -42.4375 55.1875 C-41.52387695 54.65286133 -41.52387695 54.65286133 -40.59179688 54.10742188 C-37.49411706 52.32092928 -34.4407993 50.72101754 -31.125 49.375 C-27.91318002 48.29983583 -27.91318002 48.29983583 -26.5625 45.8125 C-26.2840625 44.9153125 -26.2840625 44.9153125 -26 44 C-28.72594907 44 -30.41822971 45.04547764 -32.875 46.23046875 Z " fill="#0F56AA" transform="translate(338,159)"/>
<path d="M0 0 C3.00685874 1.61907778 5.2581079 3.05577368 7.375 5.75 C9.02942933 11.70594559 8.52545347 15.66504222 5.5625 21 C2.62247323 25.57181197 -0.89133378 28.86252408 -5.14453125 32.2109375 C-7.16328704 34.15744308 -7.63214076 35.26216238 -8 38 C-7.236875 38.433125 -6.47375 38.86625 -5.6875 39.3125 C-0.3125 42.6875 -0.3125 42.6875 0.625 46.625 C-0.1928155 51.04120373 -2.30661061 53.37947286 -5.17578125 56.75390625 C-10.03546997 62.73746302 -10.7662194 67.47989976 -10.47265625 75.0859375 C-9.29271608 84.85701227 -3.05889378 92.72494932 2.4609375 100.6015625 C4 103 4 103 4 105 C-11.48098971 99.36319364 -23.45868944 83.78301052 -30.3125 69.375 C-33.71066039 61.84061723 -34.28945264 54.09055576 -34.125 45.9375 C-34.11597656 45.07189453 -34.10695312 44.20628906 -34.09765625 43.31445312 C-34.07439723 41.20951221 -34.03854008 39.10471658 -34 37 C-34.98142381 41.24733832 -35.30920379 45.47324533 -35.5625 49.8125 C-35.60568359 50.50537109 -35.64886719 51.19824219 -35.69335938 51.91210938 C-35.79861453 53.60788686 -35.89972863 55.30392052 -36 57 C-36.66 56.67 -37.32 56.34 -38 56 C-38.48411627 39.80900022 -37.00018817 24.33358422 -27 11 C-26.01 11.66 -25.02 12.32 -24 13 C-24.66 14.32 -25.32 15.64 -26 17 C-25.443125 16.26394531 -24.88625 15.52789062 -24.3125 14.76953125 C-17.91920084 6.59431594 -11.24634423 -1.10258277 0 0 Z M-29 20 C-28 22 -28 22 -28 22 Z M-30 22 C-29 24 -29 24 -29 24 Z M-31 24 C-30 26 -30 26 -30 26 Z M-32 27 C-31 30 -31 30 -31 30 Z M-33 30 C-32 34 -32 34 -32 34 Z " fill="#146BB2" transform="translate(67,99)"/>
<path d="M0 0 C-1 3 -1 3 -3 6 C-5.37588033 9.82144388 -5.37588033 9.82144388 -5.75 14.125 C-5.5025 14.74375 -5.255 15.3625 -5 16 C-4.66666667 17.33333333 -4.33333333 18.66666667 -4 20 C-5.32 20 -6.64 20 -8 20 C-8.99 19.01 -8.99 19.01 -10 18 C-10.6084375 18.6290625 -11.216875 19.258125 -11.84375 19.90625 C-21.34091763 29.17995487 -34.25772349 37.69072138 -47.9375 38.125 C-48.948125 38.08375 -49.95875 38.0425 -51 38 C-50.505 37.01 -50.505 37.01 -50 36 C-51.1859375 36.05800781 -52.371875 36.11601562 -53.59375 36.17578125 C-69.89689183 36.73141618 -83.4625538 34.32343292 -96 23 C-97.86460292 21.06588338 -99.41956288 19.17991327 -101 17 C-95 19 -95 19 -92.359375 20.05859375 C-88.11055335 21.24925191 -84.26094644 21.25547144 -79.875 21.1875 C-79.07707031 21.18685547 -78.27914063 21.18621094 -77.45703125 21.18554688 C-73.76409741 21.15780363 -70.58044827 20.93015523 -67 20 C-63.40723961 19.69815782 -59.81395808 19.49274045 -56.21484375 19.28125 C-52.98521204 19.12415121 -52.98521204 19.12415121 -50 18 C-50.495 17.01 -50.495 17.01 -51 16 C-47.90116855 14.32326863 -44.79511545 12.6603866 -41.6875 11 C-40.36588867 10.28457031 -40.36588867 10.28457031 -39.01757812 9.5546875 C-37.74624023 8.87792969 -37.74624023 8.87792969 -36.44921875 8.1875 C-35.66893311 7.76855469 -34.88864746 7.34960938 -34.0847168 6.91796875 C-32 6 -32 6 -29 6 C-29 5.01 -29 4.02 -29 3 C-29.99 3.33 -30.98 3.66 -32 4 C-31.69921875 2.109375 -31.69921875 2.109375 -31 0 C-21.38327485 -5.27977067 -9.83969853 -4.07159939 0 0 Z " fill="#06309C" transform="translate(339,201)"/>
<path d="M0 0 C1.29357422 -0.00386719 2.58714844 -0.00773438 3.91992188 -0.01171875 C11.3579544 -0.00418657 18.67090828 0.28074118 26.0625 1.125 C26.0625 1.455 26.0625 1.785 26.0625 2.125 C24.31114746 2.23775269 24.31114746 2.23775269 22.52441406 2.3527832 C18.08795585 2.64068739 13.65230807 2.93982844 9.21679688 3.24194336 C7.31660238 3.36989021 5.41621449 3.49500435 3.515625 3.61694336 C-9.76637725 4.47169086 -22.80691968 5.94341065 -35.9375 8.125 C-35.6075 6.475 -35.2775 4.825 -34.9375 3.125 C-33.48063397 2.80572936 -32.02187649 2.49509166 -30.5625 2.1875 C-29.75039063 2.01347656 -28.93828125 1.83945313 -28.1015625 1.66015625 C-18.74549362 0.07771003 -9.47371842 -0.02823761 0 0 Z " fill="#30E1DC" transform="translate(369.9375,229.875)"/>
<path d="M0 0 C0.66 0 1.32 0 2 0 C2.8353125 0.86625 2.8353125 0.86625 3.6875 1.75 C11.63662105 9.48427994 21.41625308 10.339602 32 11 C32 11.33 32 11.66 32 12 C22.76194702 12.48550351 15.45977188 11.86732429 7 8 C12.59075296 13.36162374 17.69908997 18.23157733 25 21 C26.32837891 21.55494141 26.32837891 21.55494141 27.68359375 22.12109375 C37.70103242 25.80904251 47.46241987 25.37821823 58 25 C56 28 56 28 53.94384766 28.41992188 C51.16896138 28.47348077 48.40055195 28.51793022 45.625 28.5 C44.62364014 28.49427979 43.62228027 28.48855957 42.59057617 28.48266602 C34.79304859 28.29473567 28.76751753 27.02172233 22 23 C21.07316406 22.49210937 20.14632812 21.98421875 19.19140625 21.4609375 C12.30502154 17.43034894 5.81807128 12.41418131 1 6 C0.2265625 2.69140625 0.2265625 2.69140625 0 0 Z " fill="#30E2DD" transform="translate(232,211)"/>
<path d="M0 0 C0.99 0.66 1.98 1.32 3 2 C2.54109375 2.83660156 2.0821875 3.67320313 1.609375 4.53515625 C-5.44931451 17.92590547 -8.57182182 30.90671927 -9 46 C-9.66 45.67 -10.32 45.34 -11 45 C-11.48411627 28.80900022 -10.00018817 13.33358422 0 0 Z " fill="#0E51A8" transform="translate(40,110)"/>
<path d="M0 0 C5.13540881 7.70311321 5.08376014 19.43581683 3.359375 28.2890625 C1.46540698 36.06918605 1.46540698 36.06918605 0 39 C-0.99 39 -1.98 39 -3 39 C-2.69147815 37.041036 -2.3780582 35.08284287 -2.0625 33.125 C-1.88847656 32.03445312 -1.71445312 30.94390625 -1.53515625 29.8203125 C-1 27 -1 27 0 25 C0.084915 23.1136088 0.107193 21.22421485 0.09765625 19.3359375 C0.09443359 18.21445313 0.09121094 17.09296875 0.08789062 15.9375 C0.07951172 14.761875 0.07113281 13.58625 0.0625 12.375 C0.05798828 11.19164062 0.05347656 10.00828125 0.04882812 8.7890625 C0.03701467 5.85932493 0.02054258 2.92968728 0 0 Z " fill="#042799" transform="translate(338,159)"/>
<path d="M0 0 C0.66 0.33 1.32 0.66 2 1 C0.84931155 3.30693579 -0.30863603 5.6099041 -1.47265625 7.91015625 C-1.99730469 8.95042969 -2.52195313 9.99070313 -3.0625 11.0625 C-3.58972656 12.10535156 -4.11695313 13.14820313 -4.66015625 14.22265625 C-6.27874252 17.57780155 -7.1224415 20.32638858 -7.31640625 24.01171875 C-7.35830078 24.76904297 -7.40019531 25.52636719 -7.44335938 26.30664062 C-7.48267578 27.09232422 -7.52199219 27.87800781 -7.5625 28.6875 C-7.60568359 29.48478516 -7.64886719 30.28207031 -7.69335938 31.10351562 C-7.79927368 33.06881447 -7.90012551 35.03438496 -8 37 C-11.73373459 31.29485355 -10.63828645 22.57013677 -10 16 C-8.54485209 9.62881184 -5.98795021 5.17909342 -1 1 C-0.67 0.67 -0.34 0.34 0 0 Z " fill="#35F7E4" transform="translate(251,147)"/>
<path d="M0 0 C1.12148438 0.30744141 1.12148438 0.30744141 2.265625 0.62109375 C3.25046875 0.89050781 4.2353125 1.15992188 5.25 1.4375 C6.71179688 1.83775391 6.71179688 1.83775391 8.203125 2.24609375 C9.58757812 2.61927734 9.58757812 2.61927734 11 3 C11.61939453 3.17853516 12.23878906 3.35707031 12.87695312 3.54101562 C15.2347479 4.05075047 17.35430379 4.11311344 19.765625 4.09765625 C21.09980469 4.09282227 21.09980469 4.09282227 22.4609375 4.08789062 C23.84152344 4.07532227 23.84152344 4.07532227 25.25 4.0625 C26.65378906 4.05573242 26.65378906 4.05573242 28.0859375 4.04882812 C30.39069041 4.03706918 32.69531227 4.02063426 35 4 C34.34 4.99 33.68 5.98 33 7 C29.54521631 7.66857659 26.01161428 7.46271394 22.5 7.4375 C21.54351562 7.45748047 20.58703125 7.47746094 19.6015625 7.49804688 C12.91576512 7.4935172 6.79445572 6.55083404 1 3 C0.67 2.01 0.34 1.02 0 0 Z " fill="#1B8CBD" transform="translate(255,232)"/>
<path d="M0 0 C-0.72973633 1.93676758 -0.72973633 1.93676758 -2 4 C-3.9519043 4.71362305 -3.9519043 4.71362305 -6.32421875 5.01171875 C-7.18853516 5.12966797 -8.05285156 5.24761719 -8.94335938 5.36914062 C-10.30170898 5.52672852 -10.30170898 5.52672852 -11.6875 5.6875 C-13.0168457 5.86249023 -13.0168457 5.86249023 -14.37304688 6.04101562 C-16.10761241 6.2682681 -17.84313212 6.48837283 -19.57958984 6.70068359 C-22.72673802 7.08987097 -25.86239814 7.54073406 -29 8 C-20.67292172 2.44861448 -10.01572865 -0.68289059 0 0 Z " fill="#146BB1" transform="translate(318,211)"/>
<path d="M0 0 C4.07103519 -0.0250466 8.14203946 -0.04302089 12.21313477 -0.05493164 C13.59302554 -0.05990624 14.97291121 -0.06668832 16.3527832 -0.07543945 C24.63093324 -0.12655771 32.77282454 0.03942285 41 1 C41 1.33 41 1.66 41 2 C33.60173198 2.82695211 26.25044347 3.10821795 18.8125 3.125 C17.53765747 3.13176758 17.53765747 3.13176758 16.23706055 3.13867188 C10.12377808 3.12377808 10.12377808 3.12377808 9 2 C7.48530552 1.76807135 5.96245438 1.58784762 4.4375 1.4375 C3.61121094 1.35371094 2.78492188 1.26992187 1.93359375 1.18359375 C1.29550781 1.12300781 0.65742188 1.06242188 0 1 C0 0.67 0 0.34 0 0 Z " fill="#25B2CB" transform="translate(355,230)"/>
<path d="M0 0 C6 2 6 2 8.625 3.0625 C13.67423354 4.46506487 18.78415892 4.67928485 24 5 C24 5.33 24 5.66 24 6 C22.02 6 20.04 6 18 6 C17.67 6.99 17.34 7.98 17 9 C13.9375 10.1875 13.9375 10.1875 11 11 C9.16365304 9.35742342 7.3308593 7.71117305 5.5 6.0625 C4.97535156 5.59392578 4.45070312 5.12535156 3.91015625 4.64257812 C2.5878256 3.44904592 1.29166061 2.22665821 0 1 C0 0.67 0 0.34 0 0 Z " fill="#0B44A3" transform="translate(238,218)"/>
<path d="M0 0 C10.65891714 0.69514677 18.07544491 6.20503994 25 14 C24.67 14.66 24.34 15.32 24 16 C23.443125 15.54109375 22.88625 15.0821875 22.3125 14.609375 C16.40255191 9.85745728 10.83228056 6.18452308 3.5625 3.9375 C2.2940625 3.4734375 2.2940625 3.4734375 1 3 C0.67 2.01 0.34 1.02 0 0 Z " fill="#052D9B" transform="translate(287,134)"/>
<path d="M0 0 C0.66 0 1.32 0 2 0 C2.85851562 0.93585938 2.85851562 0.93585938 3.734375 1.890625 C6.5029718 4.46828409 8.58104244 4.95240053 12.25 5.75 C13.86648437 6.11351562 13.86648437 6.11351562 15.515625 6.484375 C16.33546875 6.65453125 17.1553125 6.8246875 18 7 C18 7.99 18 8.98 18 10 C7.06609377 10.57323392 7.06609377 10.57323392 3 7 C0 2.75862069 0 2.75862069 0 0 Z " fill="#2EDDDB" transform="translate(114,163)"/>
<path d="M0 0 C2 2 2 2 2.5625 4.5625 C1.70830157 9.78260151 -1.44466219 13.19342847 -5 17 C-5.99 17.66 -6.98 18.32 -8 19 C-8.70703125 17.2734375 -8.70703125 17.2734375 -9 15 C-7.63671875 12.8515625 -7.63671875 12.8515625 -5.6875 10.625 C-2.83959755 7.19276697 -1.02097335 4.42421786 0 0 Z " fill="#1F9BC3" transform="translate(65,141)"/>
<path d="M0 0 C1.09340381 3.28021144 0.91976418 4.12608974 0.0390625 7.34375 C-0.18523437 8.17777344 -0.40953125 9.01179687 -0.640625 9.87109375 C-0.88296875 10.73863281 -1.1253125 11.60617188 -1.375 12.5 C-1.60960937 13.36753906 -1.84421875 14.23507813 -2.0859375 15.12890625 C-2.98911464 18.44910859 -3.91167878 21.73503634 -5 25 C-4.01 24.67 -3.02 24.34 -2 24 C-2.66 25.32 -3.32 26.64 -4 28 C-5.32 28 -6.64 28 -8 28 C-7.00797911 22.91765332 -5.79950577 17.90236458 -4.5625 12.875 C-4.34529297 11.96878906 -4.12808594 11.06257812 -3.90429688 10.12890625 C-3.68966797 9.25878906 -3.47503906 8.38867188 -3.25390625 7.4921875 C-3.06127197 6.70183105 -2.8686377 5.91147461 -2.67016602 5.09716797 C-2 3 -2 3 0 0 Z " fill="#2CD0D6" transform="translate(403,177)"/>
<path d="M0 0 C-1.35435383 3.12646853 -2.77501302 4.89291353 -5.4375 7 C-8.03817678 9.13472219 -10.14249929 11.15911656 -12 14 C-13 13 -13 13 -13.328125 10.70703125 C-12.88521251 7.05300319 -11.51043566 6.05167957 -8.75 3.6875 C-7.96109375 2.99011719 -7.1721875 2.29273437 -6.359375 1.57421875 C-4 0 -4 0 0 0 Z " fill="#06309C" transform="translate(69,123)"/>
<path d="M0 0 C0 0.66 0 1.32 0 2 C-17.83189655 11.32327586 -17.83189655 11.32327586 -24.0625 10.6875 C-24.701875 10.460625 -25.34125 10.23375 -26 10 C-26 9.67 -26 9.34 -26 9 C-24.87851562 8.70996094 -24.87851562 8.70996094 -23.734375 8.4140625 C-22.74953125 8.15367187 -21.7646875 7.89328125 -20.75 7.625 C-19.77546875 7.36976563 -18.8009375 7.11453125 -17.796875 6.8515625 C-15.05250584 6.11003903 -15.05250584 6.11003903 -12.890625 4.8984375 C-11 4 -11 4 -7 4 C-7 3.34 -7 2.68 -7 2 C-2.25 0 -2.25 0 0 0 Z " fill="#1675B5" transform="translate(289,212)"/>
<path d="M0 0 C0.66 0 1.32 0 2 0 C2.8353125 0.86625 2.8353125 0.86625 3.6875 1.75 C11.63662105 9.48427994 21.41625308 10.339602 32 11 C32 11.33 32 11.66 32 12 C24.01788906 12.41405763 17.38943403 12.44991825 10.0859375 8.97265625 C8.04664043 7.92433408 8.04664043 7.92433408 5.8671875 7.55859375 C2.64384133 6.59428726 1.61772094 3.7732359 0 1 C0 0.67 0 0.34 0 0 Z " fill="#23ABC9" transform="translate(232,211)"/>
<path d="M0 0 C0.66 0 1.32 0 2 0 C1.34 7.92 0.68 15.84 0 24 C-0.66 23.67 -1.32 23.34 -2 23 C-2.1031366 15.58562466 -2.10153363 8.3435575 -1 1 C-0.67 0.67 -0.34 0.34 0 0 Z " fill="#042698" transform="translate(31,132)"/>
<path d="M0 0 C0.66 0.33 1.32 0.66 2 1 C2.8814688 3.64440639 3.16174818 5.28060752 3.1875 8 C3.20167969 8.680625 3.21585937 9.36125 3.23046875 10.0625 C3 12 3 12 1 15 C-1.625 15.6875 -1.625 15.6875 -4 16 C-3.71125 15.30132812 -3.4225 14.60265625 -3.125 13.8828125 C-2.75375 12.97273438 -2.3825 12.06265625 -2 11.125 C-1.62875 10.22007813 -1.2575 9.31515625 -0.875 8.3828125 C0.11490226 6.11016142 0.11490226 6.11016142 0 4 C0 2.68 0 1.36 0 0 Z " fill="#1F99C2" transform="translate(72,103)"/>
<path d="M0 0 C0.66 0.33 1.32 0.66 2 1 C1.35492261 2.34391123 0.6802367 3.67353844 0 5 C-0.29132813 5.59039062 -0.58265625 6.18078125 -0.8828125 6.7890625 C-3.49660237 11.79025099 -3.49660237 11.79025099 -6.25 12.9375 C-6.8275 12.958125 -7.405 12.97875 -8 13 C-7.46760392 8.47463334 -5.72876727 5.61160373 -3 2 C-2.01 1.34 -1.02 0.68 0 0 Z " fill="#2FE0DC" transform="translate(251,147)"/>
<path d="M0 0 C4.85963179 0.60745397 8.7405518 2.72758967 13 5 C12.67 6.32 12.34 7.64 12 9 C9.36 8.34 6.72 7.68 4 7 C3.67 5.68 3.34 4.36 3 3 C1.52109931 1.26973898 1.52109931 1.26973898 0 0 Z " fill="#1366B0" transform="translate(234,201)"/>
<path d="M0 0 C0.33 0 0.66 0 1 0 C1.33 1.65 1.66 3.3 2 5 C2.33 5 2.66 5 3 5 C3 9.29 3 13.58 3 18 C-0.90073951 14.09926049 -0.88204466 11.33521058 -1 6 C-0.5625 2.4375 -0.5625 2.4375 0 0 Z " fill="#0B47A5" transform="translate(53,159)"/>
<path d="M0 0 C1.89510699 -0.08160748 3.79124504 -0.13946459 5.6875 -0.1875 C6.74324219 -0.22230469 7.79898437 -0.25710937 8.88671875 -0.29296875 C12.38158604 0.03590835 14.22938553 0.87706164 17 3 C17 3.66 17 4.32 17 5 C11.39 4.01 5.78 3.02 0 2 C0 1.34 0 0.68 0 0 Z " fill="#197FB9" transform="translate(310,205)"/>
<path d="M0 0 C-2 2 -2 2 -5.6953125 2.1953125 C-7.17200108 2.182009 -8.64862358 2.15814835 -10.125 2.125 C-10.87910156 2.11597656 -11.63320313 2.10695312 -12.41015625 2.09765625 C-14.27357254 2.0740687 -16.13682593 2.03819719 -18 2 C-18 1.34 -18 0.68 -18 0 C-15.56288386 -0.19484938 -13.12562602 -0.38115178 -10.6875 -0.5625 C-9.99720703 -0.61857422 -9.30691406 -0.67464844 -8.59570312 -0.73242188 C-5.37487726 -0.96581505 -3.09672655 -1.03224218 0 0 Z " fill="#1369B1" transform="translate(290,237)"/>
<path d="M0 0 C0.66 0.33 1.32 0.66 2 1 C1 4 1 4 -1 7 C-2.01559401 8.99212671 -3.01789629 10.9911515 -4 13 C-4.66 12.67 -5.32 12.34 -6 12 C-5.57405412 10.55903414 -5.13373367 9.12231288 -4.6875 7.6875 C-4.44386719 6.88699219 -4.20023437 6.08648437 -3.94921875 5.26171875 C-2.95817977 2.90035427 -1.91925057 1.66120007 0 0 Z " fill="#021F96" transform="translate(337,200)"/>
<path d="M0 0 C-5.21849796 3.47899864 -10.77855342 5.22231918 -17 6 C-6.95535714 -2.03571429 -6.95535714 -2.03571429 0 0 Z " fill="#0D4DA6" transform="translate(305,212)"/>
<path d="M0 0 C0.81404297 0.61488281 0.81404297 0.61488281 1.64453125 1.2421875 C2.35996094 1.78101563 3.07539062 2.31984375 3.8125 2.875 C4.52019531 3.40867188 5.22789063 3.94234375 5.95703125 4.4921875 C7.60456297 5.70814781 9.29624211 6.86416141 11 8 C11 8.66 11 9.32 11 10 C11.99 10.33 12.98 10.66 14 11 C13.67 11.66 13.34 12.32 13 13 C8.32873203 9.62695042 3.83910692 6.31899529 0 2 C0 1.34 0 0.68 0 0 Z " fill="#07339D" transform="translate(52,188)"/>
<path d="M0 0 C5.28 0 10.56 0 16 0 C16 0.33 16 0.66 16 1 C15.030625 1.309375 14.06125 1.61875 13.0625 1.9375 C10.15934208 2.69523342 10.15934208 2.69523342 9 4 C7.33382885 4.04063832 5.66611905 4.042721 4 4 C4 3.01 4 2.02 4 1 C2.68 0.67 1.36 0.34 0 0 Z " fill="#1D91BF" transform="translate(128,169)"/>
<path d="M0 0 C4.3177458 0.50797009 8.03302114 1.19682779 12 3 C12 3.99 12 4.98 12 6 C10.55989519 5.74337755 9.1229313 5.46909179 7.6875 5.1875 C6.88699219 5.03667969 6.08648437 4.88585937 5.26171875 4.73046875 C2.75338805 3.92035158 1.64586907 3.02937254 0 1 C0 0.67 0 0.34 0 0 Z " fill="#0C49A5" transform="translate(287,134)"/>
<path d="M0 0 C6.73742646 -0.11044961 13.29980211 0.29867087 20 1 C20 1.33 20 1.66 20 2 C14.06 2.33 8.12 2.66 2 3 C2 2.34 2 1.68 2 1 C1.34 0.67 0.68 0.34 0 0 Z " fill="#21A2C5" transform="translate(376,230)"/>
<path d="M0 0 C0 0.99 0 1.98 0 3 C-3.63 3 -7.26 3 -11 3 C-10.67 2.01 -10.34 1.02 -10 0 C-2.25 -1.125 -2.25 -1.125 0 0 Z " fill="#052E9B" transform="translate(260,207)"/>
<path d="M0 0 C0.495 0.391875 0.99 0.78375 1.5 1.1875 C0.736875 1.47625 -0.02625 1.765 -0.8125 2.0625 C-3.65029308 3.15019013 -3.65029308 3.15019013 -6.5 5.1875 C-8.15549531 5.57249891 -9.8222433 5.91543135 -11.5 6.1875 C-11.23828125 4.3046875 -11.23828125 4.3046875 -10.5 2.1875 C-7.20292727 0.02969039 -3.7883446 -1.231212 0 0 Z " fill="#0A3FA1" transform="translate(318.5,198.8125)"/>
<path d="M0 0 C0.33 0 0.66 0 1 0 C1.06058594 1.20398438 1.12117188 2.40796875 1.18359375 3.6484375 C1.26799732 5.22397077 1.35264541 6.79949096 1.4375 8.375 C1.47681641 9.1690625 1.51613281 9.963125 1.55664062 10.78125 C1.68893404 15.02601221 1.68893404 15.02601221 3 19 C0 18 0 18 -1.25 15.75 C-2.10421172 12.61789036 -1.74346357 11.12254701 -1 8 C-1 6.7625 -1 5.525 -1 4.25 C-1 1 -1 1 0 0 Z " fill="#2BCCD5" transform="translate(28,138)"/>
<path d="M0 0 C-4.2403502 3.88698768 -9.39096352 4.89129015 -15 5.125 C-15.66 5.08375 -16.32 5.0425 -17 5 C-11.37239562 1.24826375 -6.79935253 -0.41628689 0 0 Z " fill="#24B0CB" transform="translate(306,214)"/>
<path d="M0 0 C2 2 2 2 2.3125 4.9375 C2 8 2 8 0.6875 9.875 C-1 11 -1 11 -4 11 C-3.71125 10.29875 -3.4225 9.5975 -3.125 8.875 C-1.97866412 5.94547497 -0.97374346 2.99078347 0 0 Z " fill="#2AC9D3" transform="translate(65,141)"/>
<path d="M0 0 C4 1.33333333 8 2.66666667 12 4 C10.35 5.32 8.7 6.64 7 8 C5.83035398 6.8572081 4.66435444 5.71068285 3.5 4.5625 C2.8503125 3.92441406 2.200625 3.28632813 1.53125 2.62890625 C0 1 0 1 0 0 Z " fill="#0F56AA" transform="translate(238,218)"/>
<path d="M0 0 C3.77727089 1.81309003 7.37269822 3.9073259 11 6 C11 6.99 11 7.98 11 9 C7.00584176 7.63057432 4.11667166 5.85694902 1 3 C0.67 2.01 0.34 1.02 0 0 Z " fill="#2ACAD4" transform="translate(227,198)"/>
<path d="M0 0 C2 3 2 3 2 4.875 C-0.11357461 9.36634604 -3.93162551 11.58452103 -8.375 13.3125 C-9.674375 13.6528125 -9.674375 13.6528125 -11 14 C-11.33 13.34 -11.66 12.68 -12 12 C-11.18595703 11.74476562 -11.18595703 11.74476562 -10.35546875 11.484375 C-4.62592687 9.61313165 -4.62592687 9.61313165 -1 5 C-0.28566879 2.35065178 -0.28566879 2.35065178 0 0 Z " fill="#2ED8D9" transform="translate(118,69)"/>
<path d="M0 0 C0.99 0.66 1.98 1.32 3 2 C1.68 4.31 0.36 6.62 -1 9 C-2.32 8.67 -3.64 8.34 -5 8 C-3.35 5.36 -1.7 2.72 0 0 Z " fill="#1366B0" transform="translate(40,110)"/>
<path d="M0 0 C0.68359375 1.703125 0.68359375 1.703125 1 4 C-0.21484375 6.359375 -0.21484375 6.359375 -1.9375 8.75 C-2.50339844 9.54921875 -3.06929688 10.3484375 -3.65234375 11.171875 C-4.09707031 11.77515625 -4.54179687 12.3784375 -5 13 C-5.99 12.67 -6.98 12.34 -8 12 C-7.59007812 11.55269531 -7.18015625 11.10539062 -6.7578125 10.64453125 C-3.74359926 7.26255515 -1.33949455 4.420332 0 0 Z " fill="#042498" transform="translate(485,61)"/>
<path d="M0 0 C2.64 0.33 5.28 0.66 8 1 C8 1.99 8 2.98 8 4 C5.36 4 2.72 4 0 4 C0 2.68 0 1.36 0 0 Z " fill="#26B8CE" transform="translate(124,169)"/>
<path d="M0 0 C1.46555316 0.73579212 2.92224487 1.48925126 4.375 2.25 C5.18710938 2.66765625 5.99921875 3.0853125 6.8359375 3.515625 C9 5 9 5 11 9 C7.37 7.02 3.74 5.04 0 3 C0 2.01 0 1.02 0 0 Z " fill="#29C5D2" transform="translate(244,225)"/>
<path d="M0 0 C-1.36983503 3.16115776 -1.9890638 3.9927092 -5 6 C-6.32 5.34 -7.64 4.68 -9 4 C-4.5 0 -4.5 0 0 0 Z " fill="#0D4CA6" transform="translate(69,123)"/>
<path d="M0 0 C0 0.99 0 1.98 0 3 C-1.98 3.33 -3.96 3.66 -6 4 C-6 2.68 -6 1.36 -6 0 C-3.50907189 -1.24546405 -2.58919267 -0.7767578 0 0 Z " fill="#1D91BF" transform="translate(285,189)"/>
<path d="M0 0 C-1.625 5.75 -1.625 5.75 -5 8 C-4.74438677 5.6568787 -4.40729228 3.32156597 -4 1 C-2 0 -2 0 0 0 Z " fill="#32EBE0" transform="translate(246,159)"/>
<path d="M0 0 C0.66 0.33 1.32 0.66 2 1 C2.4140625 3.06640625 2.4140625 3.06640625 2.625 5.5625 C2.69976562 6.38878906 2.77453125 7.21507813 2.8515625 8.06640625 C2.92503906 9.02353516 2.92503906 9.02353516 3 10 C1.68 10 0.36 10 -1 10 C-0.649375 9.278125 -0.29875 8.55625 0.0625 7.8125 C1.10409017 4.6877295 0.89096572 3.11838004 0 0 Z " fill="#2CCFD6" transform="translate(72,103)"/>
<path d="M0 0 C2.375 0.3125 2.375 0.3125 5 1 C7 4 7 4 7 7 C6.01 7 5.02 7 4 7 C3.896875 6.401875 3.79375 5.80375 3.6875 5.1875 C2.91123545 2.71756736 1.92911079 1.67748765 0 0 Z " fill="#1777B6" transform="translate(234,201)"/>
<path d="M0 0 C0.33 0.99 0.66 1.98 1 3 C-1.3125 3.6875 -1.3125 3.6875 -4 4 C-5.8125 2.5625 -5.8125 2.5625 -7 1 C-3.535 0.505 -3.535 0.505 0 0 Z " fill="#27BDCF" transform="translate(257,191)"/>
<path d="M0 0 C0.625 1.8125 0.625 1.8125 1 4 C0.01 5.485 0.01 5.485 -1 7 C-2.32 6.67 -3.64 6.34 -5 6 C-5 5.01 -5 4.02 -5 3 C-3.68 3 -2.36 3 -1 3 C-0.67 2.01 -0.34 1.02 0 0 Z " fill="#0C4AA6" transform="translate(336,190)"/>
<path d="M0 0 C2.64752004 2.57784846 4.94432065 4.91648098 7 8 C6.67 8.99 6.34 9.98 6 11 C4.9944239 9.54550599 3.99569565 8.08627557 3 6.625 C2.443125 5.81289062 1.88625 5.00078125 1.3125 4.1640625 C0 2 0 2 0 0 Z " fill="#32ECE0" transform="translate(31,189)"/>
<path d="M0 0 C0.99 0 1.98 0 3 0 C3 2.64 3 5.28 3 8 C1.5 6.8125 1.5 6.8125 0 5 C-0.1875 2.3125 -0.1875 2.3125 0 0 Z " fill="#07359E" transform="translate(53,169)"/>
<path d="M0 0 C2.31 0 4.62 0 7 0 C6.34 1.32 5.68 2.64 5 4 C3.35 4 1.7 4 0 4 C0.99 3.34 1.98 2.68 3 2 C2.01 1.34 1.02 0.68 0 0 Z " fill="#0E53A9" transform="translate(311,211)"/>
<path d="M0 0 C0.66 0.33 1.32 0.66 2 1 C1.34 2.32 0.68 3.64 0 5 C-0.99 5 -1.98 5 -3 5 C-3 4.01 -3 3.02 -3 2 C-2.01 1.34 -1.02 0.68 0 0 Z " fill="#2CD3D7" transform="translate(251,147)"/>
<path d="M0 0 C1.98 0.66 3.96 1.32 6 2 C6 2.99 6 3.98 6 5 C4.02 4.01 2.04 3.02 0 2 C0 1.34 0 0.68 0 0 Z " fill="#21A5C6" transform="translate(255,232)"/>
<path d="M0 0 C3.465 1.98 3.465 1.98 7 4 C6.67 4.66 6.34 5.32 6 6 C3.11562221 4.70700306 1.12780579 3.34058637 -1 1 C-0.67 0.67 -0.34 0.34 0 0 Z " fill="#021F96" transform="translate(328,216)"/>
<path d="M0 0 C2 1 2 1 2 1 Z " fill="#021C95" transform="translate(326,267)"/>
<path d="M0 0 C2 1 2 1 2 1 Z " fill="#021C95" transform="translate(316,267)"/>
</svg>
