<svg width="340" height="74" viewBox="0 0 340 74" fill="none" xmlns="http://www.w3.org/2000/svg">
  <rect width="74" height="74" rx="20" fill="#0B3D2E"/>
  <path d="M19 42.5C30.3333 34.1667 38.6667 30 44 30C49.3333 30 54.1667 32.1667 58.5 36.5" stroke="#F4C542" stroke-width="3.5" stroke-linecap="round" stroke-dasharray="1 8"/>
  <path d="M23 54.5L40 21L54 54.5" stroke="white" stroke-width="4.75" stroke-linecap="round" stroke-linejoin="round"/>
  <circle cx="23" cy="54.5" r="3.5" fill="#F4C542"/>
  <circle cx="54" cy="54.5" r="3.5" fill="#F4C542"/>
  <circle cx="40" cy="21" r="3.5" fill="#F4C542"/>
  <path d="M96.5 48V24.8H102.38V34.28H113.78V24.8H119.66V48H113.78V39.22H102.38V48H96.5Z" fill="#0B3D2E"/>
  <path d="M124.41 48V24.8H140.65V29.56H130.29V34.1H139.81V38.76H130.29V48H124.41Z" fill="#0B3D2E"/>
  <path d="M143.367 48V24.8H149.247V43.14H160.007V48H143.367Z" fill="#0B3D2E"/>
  <path d="M162.882 48V24.8H180.182V29.46H168.762V34H179.142V38.56H168.762V43.34H180.322V48H162.882Z" fill="#0B3D2E"/>
  <path d="M183.536 48V24.8H189.416V34.5L197.716 24.8H204.876L196.116 34.88L205.196 48H198.156L191.936 38.96L189.416 41.82V48H183.536Z" fill="#0B3D2E"/>
  <path d="M208.081 48V29.66H201.121V24.8H220.921V29.66H213.961V48H208.081Z" fill="#0B3D2E"/>
  <path d="M223.667 48V24.8H229.547V48H223.667Z" fill="#0B3D2E"/>
  <path d="M244.456 48.42C240.816 48.42 237.79 47.6933 235.376 46.24C232.983 44.7667 231.19 42.8 229.996 40.34C228.803 37.88 228.206 35.1267 228.206 32.08C228.206 29.0333 228.803 26.28 229.996 23.82C231.19 21.36 232.983 19.4033 235.376 17.95C237.79 16.4767 240.816 15.74 244.456 15.74C248.096 15.74 251.112 16.4767 253.506 17.95C255.919 19.4033 257.723 21.36 258.916 23.82C260.11 26.28 260.706 29.0333 260.706 32.08C260.706 35.1267 260.11 37.88 258.916 40.34C257.723 42.8 255.919 44.7667 253.506 46.24C251.112 47.6933 248.096 48.42 244.456 48.42ZM244.456 43.28C246.803 43.28 248.656 42.2533 250.016 40.2C251.376 38.1467 252.056 35.44 252.056 32.08C252.056 28.72 251.376 26.0133 250.016 23.96C248.656 21.9067 246.803 20.88 244.456 20.88C242.11 20.88 240.246 21.9067 238.866 23.96C237.506 26.0133 236.826 28.72 236.826 32.08C236.826 35.44 237.506 38.1467 238.866 40.2C240.246 42.2533 242.11 43.28 244.456 43.28Z" fill="#0B3D2E"/>
  <path d="M263.482 48V24.8H268.862L279.862 38.94V24.8H285.642V48H280.642L269.262 33.42V48H263.482Z" fill="#0B3D2E"/>
  <text x="96" y="66" fill="#6A756E" font-family="Manrope, sans-serif" font-size="12" font-weight="700" letter-spacing="2.8">TRAVEL INDUSTRY RECRUITMENT</text>
</svg>
