<?xml version="1.0" encoding="UTF-8"?>
<svg version="1.1" xmlns="http://www.w3.org/2000/svg" width="291" height="92">
<path d="M0 0 C6.20988129 0.44356295 10.60540561 1.91532502 16 5 C16.556875 4.505 17.11375 4.01 17.6875 3.5 C20.38162983 1.75245633 21.85375007 1.73781251 25 2 C25.33 3.65 25.66 5.3 26 7 C23.69 8.32 21.38 9.64 19 11 C18.69504515 15.42664564 18.69504515 15.42664564 20.5 19.375 C20.995 19.91125 21.49 20.4475 22 21 C23.0451231 19.98270562 24.08585513 18.96090025 25.125 17.9375 C26.09373047 16.99003906 26.09373047 16.99003906 27.08203125 16.0234375 C28.87742397 14.12931646 30.30214213 12.18305976 31.8125 10.0625 C33.69305518 7.78623478 34.51732929 7.05776958 37.4987793 6.70092773 C38.83549683 6.75422241 38.83549683 6.75422241 40.19921875 6.80859375 C41.54826294 6.85004517 41.54826294 6.85004517 42.92456055 6.89233398 C43.60945557 6.92786377 44.29435059 6.96339355 45 7 C44.1669339 12.07253986 43.3306769 17.14453938 42.49145508 22.21606445 C42.20639634 23.94150539 41.92221093 25.66709085 41.63891602 27.39282227 C41.23162541 29.87294386 40.82119955 32.35252921 40.41015625 34.83203125 C40.22103416 35.98998955 40.22103416 35.98998955 40.02809143 37.17134094 C39.52148744 40.21192112 38.97660035 43.07019894 38 46 C35.36 46 32.72 46 30 46 C30.61458229 37.9295642 31.69225335 29.98614219 33 22 C31.55935235 23.41346562 30.12260985 24.83091211 28.6875 26.25 C27.88699219 27.03890625 27.08648437 27.8278125 26.26171875 28.640625 C24.31256349 30.67394067 22.62578594 32.70601078 21 35 C19.171875 34.76953125 19.171875 34.76953125 17 34 C15.515625 32.07421875 15.515625 32.07421875 14.25 29.6875 C13.82203125 28.90761719 13.3940625 28.12773438 12.953125 27.32421875 C12 25 12 25 12 21 C11.01 21 10.02 21 9 21 C8.96261719 21.63164063 8.92523438 22.26328125 8.88671875 22.9140625 C8.3080375 30.78866613 6.78349214 38.31640179 5 46 C2.36 46 -0.28 46 -3 46 C-2.86722656 44.94941406 -2.73445313 43.89882813 -2.59765625 42.81640625 C-2.23320548 39.92899345 -1.87490603 37.04088644 -1.51953125 34.15234375 C-1.22499129 31.76533165 -0.91264794 29.38532999 -0.57421875 27.00390625 C-0.30272849 25.01188732 -0.13832209 23.00567031 0 21 C-0.66 20.34 -1.32 19.68 -2 19 C-2.70710678 17.35008418 -3.37943989 15.68437744 -4 14 C-3.34 13.67 -2.68 13.34 -2 13 C0.125 13.9375 0.125 13.9375 2 15 C2.24954005 13.56589632 2.47392642 12.12739928 2.6875 10.6875 C2.81511719 9.88699219 2.94273437 9.08648437 3.07421875 8.26171875 C3.24373967 5.91348119 3.24373967 5.91348119 1.51953125 4.39453125 C1.01808594 3.93433594 0.51664062 3.47414063 0 3 C0 2.01 0 1.02 0 0 Z " fill="#0D3B5C" transform="translate(126,15)"/>
<path d="M0 0 C2.31 0 4.62 0 7 0 C6.67 3.96 6.34 7.92 6 12 C12.9961892 13.37425145 17.66896592 12.68294146 23.765625 8.90625 C25.18151774 7.9439928 26.59126127 6.97270055 28 6 C28.66 6 29.32 6 30 6 C33.22265625 11.17578125 33.22265625 11.17578125 34 13 C33 16 33 16 30.890625 17.1328125 C30.01921875 17.46023437 29.1478125 17.78765625 28.25 18.125 C27.38890625 18.45757812 26.5278125 18.79015625 25.640625 19.1328125 C18.18976817 21.57969152 11.325678 21.9302712 4 19 C4 21.64 4 24.28 4 27 C5.65 27 7.3 27 9 27 C9.04241723 29.33294775 9.04092937 31.66702567 9 34 C8 35 8 35 4.25 35.375 C0.95100928 35.29772634 -0.08401017 34.9502797 -3.0625 33.1875 C-6.67146347 27.25017301 -4.34238726 20.49998043 -3 14 C-5.97 14.99 -8.94 15.98 -12 17 C-12.13277344 18.13179687 -12.26554687 19.26359375 -12.40234375 20.4296875 C-12.5805342 21.91148179 -12.75893029 23.39325136 -12.9375 24.875 C-13.02451172 25.62136719 -13.11152344 26.36773437 -13.20117188 27.13671875 C-13.88671875 32.7734375 -13.88671875 32.7734375 -15 35 C-17.31 35 -19.62 35 -22 35 C-21.47703913 25.47850555 -19.8815863 16.32509434 -18 7 C-15.69 7 -13.38 7 -11 7 C-10.67 7.99 -10.34 8.98 -10 10 C-7.13908292 9.30140397 -4.54307167 8.50508323 -2 7 C-0.38864654 3.45136841 -0.38864654 3.45136841 0 0 Z " fill="#0E3B5C" transform="translate(91,26)"/>
<path d="M0 0 C2.40309625 1.47927822 3.64623512 2.86096621 4.66796875 5.48828125 C4.70921875 6.06578125 4.75046875 6.64328125 4.79296875 7.23828125 C2.54296875 8.86328125 2.54296875 8.86328125 -0.20703125 10.23828125 C-2.39453125 9.48828125 -2.39453125 9.48828125 -4.20703125 8.23828125 C-8.17472547 6.25443414 -13.06232611 6.9119756 -17.20703125 8.23828125 C-17.20703125 9.55828125 -17.20703125 10.87828125 -17.20703125 12.23828125 C-16.0984375 12.5528125 -14.98984375 12.86734375 -13.84765625 13.19140625 C-12.38391517 13.62302221 -10.9203843 14.05535154 -9.45703125 14.48828125 C-8.72742188 14.69324219 -7.9978125 14.89820313 -7.24609375 15.109375 C-2.99071565 16.38598843 0.11352681 17.47741929 2.79296875 21.23828125 C3.75206061 25.24662377 3.69778463 29.42123296 1.83984375 33.15234375 C-1.86620537 37.91391319 -5.826467 39.11918568 -11.51953125 39.98828125 C-17.41475446 40.52777755 -22.02777199 39.58293058 -27.14453125 36.42578125 C-29.45112902 33.97938968 -29.93136036 32.54633198 -30.20703125 29.23828125 C-28.22703125 28.24828125 -26.24703125 27.25828125 -24.20703125 26.23828125 C-23.60890625 26.87765625 -23.01078125 27.51703125 -22.39453125 28.17578125 C-19.48857093 30.9156867 -17.74320451 31.21878404 -13.76953125 31.36328125 C-10.99297369 31.26585818 -8.82225002 31.07515126 -6.20703125 30.23828125 C-6.20703125 28.58828125 -6.20703125 26.93828125 -6.20703125 25.23828125 C-9.46571122 23.3974404 -12.55311885 22.6702659 -16.20703125 21.92578125 C-19.96565979 21.00445889 -21.9307708 20.46431253 -24.95703125 17.98828125 C-26.59129424 14.39290267 -26.75660754 12.1540123 -26.20703125 8.23828125 C-21.30758549 -1.56061028 -9.92425944 -3.42518689 0 0 Z " fill="#0C3B5D" transform="translate(34.20703125,21.76171875)"/>
<path d="M0 0 C2.31 0 4.62 0 7 0 C6.67 6.6 6.34 13.2 6 20 C8.97 19.67 11.94 19.34 15 19 C15.19335938 18.21496094 15.38671875 17.42992188 15.5859375 16.62109375 C16.96653221 11.0508725 18.37388447 5.50377563 20 0 C22.31 0 24.62 0 27 0 C26.65529689 7.35941147 25.48827712 14.57238457 24.1875 21.8125 C24.03442383 22.71959717 23.88134766 23.62669434 23.72363281 24.5612793 C22.50346632 31.10729131 21.00385147 35.85439181 15.375 39.875 C9.82052086 41.72649305 4.45488501 42.02286876 -1 39.75 C-3.12640522 37.88939543 -4.1095674 36.6712978 -5 34 C-5 32.68 -5 31.36 -5 30 C-1.625 29.8125 -1.625 29.8125 2 30 C2.66 30.99 3.32 31.98 4 33 C7.45769191 33.58342353 7.45769191 33.58342353 11 33 C13.33130719 30.74640305 13.97071908 29.08784275 15 26 C14.0409375 26.5259375 14.0409375 26.5259375 13.0625 27.0625 C8.94598195 28.32265859 5.15172839 28.15844107 1 27 C-1.44419559 25.05245602 -1.98451948 24.04644155 -3 21 C-2.87201306 13.80319582 -2.02975914 6.90118108 0 0 Z " fill="#EC6911" transform="translate(174,33)"/>
<path d="M0 0 C3.08628551 2.40044429 4.98813162 4.34463971 5.71875 8.265625 C5.79565365 14.99469468 4.92375901 19.71861827 0.25 24.75 C-4.43432173 28.08107323 -8.19589763 28.19791148 -13.75 27.75 C-16.25 26.75 -16.25 26.75 -17.75 25.75 C-19.21939453 30.05322683 -20.52443263 34.37297367 -21.75 38.75 C-24.06 38.75 -26.37 38.75 -28.75 38.75 C-28.15884251 30.06660314 -26.77026777 21.61476618 -25.1875 13.0625 C-24.95353516 11.77666016 -24.71957031 10.49082031 -24.47851562 9.16601562 C-23.90663933 6.02653148 -23.33038572 2.88792014 -22.75 -0.25 C-22.06292969 -0.23839844 -21.37585938 -0.22679687 -20.66796875 -0.21484375 C-19.76691406 -0.20582031 -18.86585938 -0.19679687 -17.9375 -0.1875 C-16.59751953 -0.17009766 -16.59751953 -0.17009766 -15.23046875 -0.15234375 C-1.52246377 -0.69202899 -1.52246377 -0.69202899 0 0 Z M-14.125 8.4375 C-15.95245754 11.03811265 -16.67047734 12.56909368 -16.75 15.75 C-15.42799504 18.25485151 -14.40767854 19.42116073 -11.875 20.6875 C-8.70690564 20.78067925 -7.23474963 19.66134587 -4.75 17.75 C-2.70581316 15.48280255 -2.70581316 15.48280255 -1.75 12.75 C-2.41280383 10.31971928 -2.9510972 8.5489028 -4.75 6.75 C-9.75814951 6.26370487 -9.75814951 6.26370487 -14.125 8.4375 Z " fill="#0C3B5D" transform="translate(285.75,33.25)"/>
<path d="M0 0 C1.34904419 0.04145142 1.34904419 0.04145142 2.7253418 0.08374023 C3.41023682 0.11927002 4.09513184 0.1547998 4.80078125 0.19140625 C3.96771515 5.26394611 3.13145815 10.33594563 2.29223633 15.4074707 C2.00717759 17.13291164 1.72299218 18.8584971 1.43969727 20.58422852 C1.03240666 23.06435011 0.6219808 25.54393546 0.2109375 28.0234375 C0.08485611 28.7954097 -0.04122528 29.5673819 -0.17112732 30.36274719 C-0.67773131 33.40332737 -1.2226184 36.26160519 -2.19921875 39.19140625 C-4.83921875 39.19140625 -7.47921875 39.19140625 -10.19921875 39.19140625 C-9.58463646 31.12097045 -8.5069654 23.17754844 -7.19921875 15.19140625 C-8.6398664 16.60487187 -10.0766089 18.02231836 -11.51171875 19.44140625 C-12.31222656 20.2303125 -13.11273438 21.01921875 -13.9375 21.83203125 C-15.88665526 23.86534692 -17.57343281 25.89741703 -19.19921875 28.19140625 C-21.01171875 28.06640625 -21.01171875 28.06640625 -23.19921875 27.19140625 C-25.07421875 24.37890625 -25.07421875 24.37890625 -26.19921875 21.19140625 C-25.44921875 19.25390625 -25.44921875 19.25390625 -24.19921875 17.19140625 C-23.81172662 14.86645348 -23.46939036 12.53289357 -23.19921875 10.19140625 C-22.53921875 10.19140625 -21.87921875 10.19140625 -21.19921875 10.19140625 C-19.57421875 12.19140625 -19.57421875 12.19140625 -18.19921875 14.19140625 C-17.15409565 13.17411187 -16.11336362 12.1523065 -15.07421875 11.12890625 C-14.42839844 10.49726562 -13.78257812 9.865625 -13.1171875 9.21484375 C-11.32179478 7.32072271 -9.89707662 5.37446601 -8.38671875 3.25390625 C-5.76586452 0.08156683 -4.05053946 -0.16149425 0 0 Z " fill="#EC6911" transform="translate(166.19921875,21.80859375)"/>
<path d="M0 0 C2.78947635 1.36852129 3.91941387 2.58202152 6 5 C7.59832473 9.79497418 8.00612612 14.48902145 6.09375 19.26171875 C3.50407374 23.75215098 1.1086637 26.48632187 -4 28 C-8.47080918 28.58721076 -12.90920409 29.09827801 -17.0078125 26.9453125 C-19.86506461 24.6125801 -21.79249791 22.59480181 -22.2734375 18.8984375 C-22.50488764 13.14779179 -21.74976759 9.50837674 -18.58203125 4.69140625 C-13.35624012 -0.89567415 -7.21879243 -1.06330861 0 0 Z M-12.4375 9.125 C-14.24233021 12.44588758 -14.4858395 14.27523051 -14 18 C-13.01 19.485 -13.01 19.485 -12 21 C-9.1284035 21.66790364 -9.1284035 21.66790364 -6 21 C-3 19 -3 19 -1 16 C-0.42008597 11.85775694 -0.65450326 10.51824511 -3 7 C-7.22990271 6.37334775 -9.15777987 6.26575681 -12.4375 9.125 Z " fill="#0C3B5D" transform="translate(61,33)"/>
<path d="M0 0 C10.56 0 21.12 0 32 0 C31.67 2.31 31.34 4.62 31 7 C27.04 7 23.08 7 19 7 C18.731875 8.959375 18.46375 10.91875 18.1875 12.9375 C16.99367639 21.32861988 15.51423517 29.66161164 14 38 C11.03 38 8.06 38 5 38 C6.65 28.1 8.3 18.2 10 8 C6.37 7.67 2.74 7.34 -1 7 C-0.67 4.69 -0.34 2.38 0 0 Z " fill="#0C3B5D" transform="translate(200,22)"/>
<path d="M0 0 C54.45 0 108.9 0 165 0 C165 0.66 165 1.32 165 2 C110.55 2 56.1 2 0 2 C0 1.34 0 0.68 0 0 Z " fill="#0C3B5C" transform="translate(1,65)"/>
<path d="M0 0 C0.99 0.66 1.98 1.32 3 2 C1.55172414 6.5862069 1.55172414 6.5862069 -0.75 8.3125 C-3 9 -3 9 -6.0625 8.875 C-9.01269314 8.67520401 -9.01269314 8.67520401 -10.578125 10.5234375 C-12.45100174 13.785536 -13.05470025 17.09151841 -13.6875 20.75 C-13.88182617 21.79607422 -13.88182617 21.79607422 -14.08007812 22.86328125 C-14.39639933 24.57375889 -14.69952747 26.28666725 -15 28 C-17.64 28 -20.28 28 -23 28 C-19.80370943 2.80370943 -19.80370943 2.80370943 -18 1 C-16.00249552 1 -14.00444719 1.00355875 -12.0078125 1.0625 C-7.87096907 0.93372666 -4.31565505 -0.23119581 0 0 Z " fill="#0C3B5D" transform="translate(247,32)"/>
<path d="M0 0 C3.22265625 5.17578125 3.22265625 5.17578125 4 7 C3 10 3 10 0.890625 11.1328125 C0.01921875 11.46023437 -0.8521875 11.78765625 -1.75 12.125 C-2.61109375 12.45757812 -3.4721875 12.79015625 -4.359375 13.1328125 C-11.81023183 15.57969152 -18.674322 15.9302712 -26 13 C-26 12.34 -26 11.68 -26 11 C-27.175625 10.62875 -27.175625 10.62875 -28.375 10.25 C-31.32317108 8.84610901 -31.9024777 7.99324263 -33 5 C-26.73907979 3.62259755 -26.73907979 3.62259755 -23.0625 5.5 C-19.07196642 7.45454706 -16.12305576 7.3454182 -12 6 C-9.26730619 4.54950856 -6.68579941 2.97749961 -4.1015625 1.27734375 C-2 0 -2 0 0 0 Z " fill="#EC721F" transform="translate(121,32)"/>
<path d="M0 0 C0.33 1.65 0.66 3.3 1 5 C0.01 5 -0.98 5 -2 5 C-2.03738281 5.63164063 -2.07476562 6.26328125 -2.11328125 6.9140625 C-2.6919625 14.78866613 -4.21650786 22.31640179 -6 30 C-8.64 30 -11.28 30 -14 30 C-13.7161296 27.45724602 -13.42316578 24.91608446 -13.125 22.375 C-13.04636719 21.66214844 -12.96773438 20.94929688 -12.88671875 20.21484375 C-12.37424854 15.91797815 -11.53115573 12.078793 -10 8 C-9.34 8 -8.68 8 -8 8 C-7.9175 7.236875 -7.835 6.47375 -7.75 5.6875 C-7 3 -7 3 -5.125 1.1875 C-3 0 -3 0 0 0 Z " fill="#EB6811" transform="translate(137,31)"/>
<path d="M0 0 C2.64 0 5.28 0 8 0 C7.35953595 4.12585249 6.71172408 8.25051762 6.0625 12.375 C5.88009766 13.550625 5.69769531 14.72625 5.50976562 15.9375 C5.33251953 17.05898438 5.15527344 18.18046875 4.97265625 19.3359375 C4.81031494 20.37282715 4.64797363 21.4097168 4.48071289 22.47802734 C4 25 4 25 3 27 C0.69 27 -1.62 27 -4 27 C-3.50137275 17.76679887 -1.95827206 9.01544116 0 0 Z " fill="#0C3B5D" transform="translate(251,33)"/>
<path d="M0 0 C2.31 0 4.62 0 7 0 C7 1.65 7 3.3 7 5 C5.35 5.66 3.7 6.32 2 7 C2.33 7.66 2.66 8.32 3 9 C3.99 9.33 4.98 9.66 6 10 C5.6919856 12.62559844 5.37879818 15.25039806 5.0625 17.875 C4.97548828 18.62136719 4.88847656 19.36773437 4.79882812 20.13671875 C4.11328125 25.7734375 4.11328125 25.7734375 3 28 C0.69 28 -1.62 28 -4 28 C-3.47703913 18.47850555 -1.8815863 9.32509434 0 0 Z " fill="#0D3B5C" transform="translate(73,33)"/>
<path d="M0 0 C-0.99 0.33 -1.98 0.66 -3 1 C-2.27731765 4.2985139 -2.27731765 4.2985139 1.0625 5.6875 C2.031875 6.120625 3.00125 6.55375 4 7 C4 7.66 4 8.32 4 9 C4.66 9.33 5.32 9.66 6 10 C4.64053662 12.58298041 3.53230864 14.59617965 1.1875 16.375 C-1.91314004 17.26089715 -3.91616529 16.89945179 -7 16 C-9.375 14.4375 -9.375 14.4375 -11 12 C-11.81309745 7.95940347 -11.63499359 5.01598975 -9.4375 1.5 C-6.17971981 -0.50478781 -3.75217167 -0.28862859 0 0 Z M-4 6 C-4.99 7.485 -4.99 7.485 -6 9 C-5.360625 9.103125 -4.72125 9.20625 -4.0625 9.3125 C-3.381875 9.539375 -2.70125 9.76625 -2 10 C-1.67 10.99 -1.34 11.98 -1 13 C0.10836423 11.11683841 0.10836423 11.11683841 1 9 C0.67 8.34 0.34 7.68 0 7 C-2.02463255 6.34786708 -2.02463255 6.34786708 -4 6 Z " fill="#EC6911" transform="translate(259,13)"/>
<path d="M0 0 C2.31 0 4.62 0 7 0 C6.67 3.63 6.34 7.26 6 11 C4.865625 11.12375 3.73125 11.2475 2.5625 11.375 C0.7990625 11.684375 0.7990625 11.684375 -1 12 C-1.33 12.66 -1.66 13.32 -2 14 C-6.1692367 16.12358318 -10.28976797 17.44158425 -15 17 C-15.33 16.01 -15.66 15.02 -16 14 C-8.78822984 9.20435589 -8.78822984 9.20435589 -4.625 8.125 C-3.75875 7.75375 -2.8925 7.3825 -2 7 C-0.53977565 3.47548841 -0.53977565 3.47548841 0 0 Z " fill="#ED792A" transform="translate(91,26)"/>
<path d="M0 0 C2.31 0 4.62 0 7 0 C6.67 3.63 6.34 7.26 6 11 C3.36 10.34 0.72 9.68 -2 9 C-1.34 6.03 -0.68 3.06 0 0 Z " fill="#113B5C" transform="translate(91,26)"/>
<path d="M0 0 C0.66 0 1.32 0 2 0 C2 2.97 2 5.94 2 9 C-1.96 9 -5.92 9 -10 9 C-10 7.35 -10 5.7 -10 4 C-6.59437148 3.22157062 -3.49234244 2.90021879 0 3 C0 2.01 0 1.02 0 0 Z M-2 5 C-2 5.66 -2 6.32 -2 7 C-1.34 7 -0.68 7 0 7 C0 6.34 0 5.68 0 5 C-0.66 5 -1.32 5 -2 5 Z " fill="#0C3B5D" transform="translate(135,70)"/>
<path d="M0 0 C2.375 -0.125 2.375 -0.125 5 0 C5.66 0.66 6.32 1.32 7 2 C8.32 2 9.64 2 11 2 C12.125 5.75 12.125 5.75 11 8 C9.35 8 7.7 8 6 8 C5.67 7.01 5.34 6.02 5 5 C4.01 5 3.02 5 2 5 C2 5.99 2 6.98 2 8 C1.34 8 0.68 8 0 8 C0 5.36 0 2.72 0 0 Z " fill="#0C3B5D" transform="translate(53,71)"/>
<path d="M0 0 C1.11375 0.2475 1.11375 0.2475 2.25 0.5 C5.18606431 1.03382988 7.13588733 0.73648612 10 0 C10 0.66 10 1.32 10 2 C9.01 2 8.02 2 7 2 C7 2.66 7 3.32 7 4 C7.99 4 8.98 4 10 4 C10 4.66 10 5.32 10 6 C6.37 6 2.74 6 -1 6 C-1 1 -1 1 0 0 Z " fill="#0C3B5D" transform="translate(75,73)"/>
<path d="M0 0 C0.66 0 1.32 0 2 0 C2 0.99 2 1.98 2 3 C3.98 3 5.96 3 8 3 C7.5206753 7.31392226 6.2542015 9.16569547 3 12 C3 10.33333333 3 8.66666667 3 7 C2.67 7.66 2.34 8.32 2 9 C1.34 9 0.68 9 0 9 C0 6.03 0 3.06 0 0 Z " fill="#0C3B5D" transform="translate(91,70)"/>
<path d="M0 0 C0.66 0 1.32 0 2 0 C2 0.66 2 1.32 2 2 C3.98 2 5.96 2 8 2 C7.34 3.98 6.68 5.96 6 8 C4.35 8 2.7 8 1 8 C0.26919734 6.02253397 -0.39421747 4.01927511 -1 2 C-0.67 1.34 -0.34 0.68 0 0 Z M2 3 C2.33 4.32 2.66 5.64 3 7 C3.33 5.68 3.66 4.36 4 3 C3.34 3 2.68 3 2 3 Z " fill="#0C3B5D" transform="translate(28,71)"/>
<path d="M0 0 C1.98 0 3.96 0 6 0 C6 1.98 6 3.96 6 6 C4.68 6 3.36 6 2 6 C2 6.66 2 7.32 2 8 C1.34 8 0.68 8 0 8 C0 5.36 0 2.72 0 0 Z M2 2 C2 2.66 2 3.32 2 4 C2.66 4 3.32 4 4 4 C4 3.34 4 2.68 4 2 C3.34 2 2.68 2 2 2 Z " fill="#0C3B5D" transform="translate(40,73)"/>
<path d="M0 0 C0.66 0 1.32 0 2 0 C2.33 2.31 2.66 4.62 3 7 C2.01 7.33 1.02 7.66 0 8 C-0.33 6.68 -0.66 5.36 -1 4 C-1.66 5.32 -2.32 6.64 -3 8 C-3.66 8 -4.32 8 -5 8 C-5 6.02 -5 4.04 -5 2 C-3.35 2 -1.7 2 0 2 C0 1.34 0 0.68 0 0 Z " fill="#0C3B5D" transform="translate(121,71)"/>
<path d="M0 0 C1.65 0 3.3 0 5 0 C5 2.66666667 5 5.33333333 5 8 C3.02 8 1.04 8 -1 8 C-0.34 7.01 0.32 6.02 1 5 C0.6878236 2.35367713 0.6878236 2.35367713 0 0 Z " fill="#0C3B5D" transform="translate(103,71)"/>
<path d="M0 0 C1.98 0 3.96 0 6 0 C6 1.98 6 3.96 6 6 C4.02 6 2.04 6 0 6 C0 4.02 0 2.04 0 0 Z M2 2 C2 2.66 2 3.32 2 4 C2.66 4 3.32 4 4 4 C4 3.34 4 2.68 4 2 C3.34 2 2.68 2 2 2 Z " fill="#0C3B5D" transform="translate(109,73)"/>
<path d="M0 0 C1.65 0 3.3 0 5 0 C6.125 3.75 6.125 3.75 5 6 C3.35 6 1.7 6 0 6 C-1.125 2.25 -1.125 2.25 0 0 Z M2 1 C3 4 3 4 3 4 Z " fill="#0C3B5D" transform="translate(7,73)"/>
<path d="M0 0 C1.32 0.33 2.64 0.66 4 1 C4.99 0.67 5.98 0.34 7 0 C6.34 2.64 5.68 5.28 5 8 C4.34 8 3.68 8 3 8 C2.01 5.36 1.02 2.72 0 0 Z " fill="#0C3B5D" transform="translate(0,71)"/>
<path d="M0 0 C1.65 0.99 3.3 1.98 5 3 C2.63707344 5.52588702 1.33537489 6.88820837 -2 8 C-1.125 1.125 -1.125 1.125 0 0 Z " fill="#E86813" transform="translate(130,22)"/>
<path d="M0 0 C1.65 0 3.3 0 5 0 C5 1.98 5 3.96 5 6 C3.35 6 1.7 6 0 6 C0 4.02 0 2.04 0 0 Z " fill="#0C3B5D" transform="translate(14,73)"/>
<path d="M0 0 C0.33 0.66 0.66 1.32 1 2 C1.99 2 2.98 2 4 2 C4 2.66 4 3.32 4 4 C1.69 4.33 -0.62 4.66 -3 5 C-3.33 4.01 -3.66 3.02 -4 2 C-2.68 1.34 -1.36 0.68 0 0 Z " fill="#E2742F" transform="translate(79,38)"/>
<path d="M0 0 C0.99 0 1.98 0 3 0 C3 1.32 3 2.64 3 4 C2.34 4 1.68 4 1 4 C1 5.65 1 7.3 1 9 C0.34 9 -0.32 9 -1 9 C-1.09765625 2.84765625 -1.09765625 2.84765625 -1 1 C-0.67 0.67 -0.34 0.34 0 0 Z " fill="#0C3B5D" transform="translate(71,70)"/>
<path d="M0 0 C0.66 0 1.32 0 2 0 C2.33 2.31 2.66 4.62 3 7 C2.01 7.33 1.02 7.66 0 8 C-1.125 2.25 -1.125 2.25 0 0 Z " fill="#0C3B5D" transform="translate(87,71)"/>
<path d="M0 0 C0.66 0 1.32 0 2 0 C2 2.64 2 5.28 2 8 C1.34 8 0.68 8 0 8 C0 5.36 0 2.72 0 0 Z " fill="#0C3B5D" transform="translate(138,71)"/>
<path d="M0 0 C0.66 0 1.32 0 2 0 C2 2.64 2 5.28 2 8 C1.34 8 0.68 8 0 8 C0 5.36 0 2.72 0 0 Z " fill="#0C3B5D" transform="translate(37,71)"/>
<path d="M0 0 C0.99 0 1.98 0 3 0 C2.67 1.98 2.34 3.96 2 6 C1.34 6 0.68 6 0 6 C0 4.02 0 2.04 0 0 Z " fill="#0C3B5D" transform="translate(66,73)"/>
<path d="M0 0 C0.99 0 1.98 0 3 0 C2.67 1.98 2.34 3.96 2 6 C1.34 6 0.68 6 0 6 C0 4.02 0 2.04 0 0 Z " fill="#0C3B5D" transform="translate(21,73)"/>
<path d="M0 0 C0.66 0 1.32 0 2 0 C2 0.99 2 1.98 2 3 C1.34 3 0.68 3 0 3 C0 2.01 0 1.02 0 0 Z " fill="#0C3B5D" transform="translate(47,78)"/>
</svg>
