<?xml version="1.0" encoding="UTF-8"?>
<svg version="1.1" xmlns="http://www.w3.org/2000/svg" width="640" height="189">
<path d="M0 0 C211.2 0 422.4 0 640 0 C640 62.37 640 124.74 640 189 C428.8 189 217.6 189 0 189 C0 126.63 0 64.26 0 0 Z " fill="#010101" transform="translate(0,0)"/>
<path d="M0 0 C7.59 0 15.18 0 23 0 C23.78375 2.97 24.5675 5.94 25.375 9 C25.61782715 9.91910156 25.8606543 10.83820312 26.11083984 11.78515625 C27.11659801 15.60196348 28.10834315 19.41997172 29.046875 23.25390625 C29.88120154 26.5330831 30.8301619 29.72095296 31.875 32.9375 C33.51240725 38.21290606 34.95033334 43.50846462 36.25 48.875 C36.42515137 49.57616943 36.60030273 50.27733887 36.78076172 50.99975586 C37.82932304 55.44373401 38.16688296 59.43455913 38 64 C40.29324464 63.14435105 40.29324464 63.14435105 40.91381836 60.3671875 C41.21940674 59.21476562 41.52499512 58.06234375 41.83984375 56.875 C42.18080078 55.61042969 42.52175781 54.34585938 42.87304688 53.04296875 C43.22830732 51.69542914 43.58312194 50.34777193 43.9375 49 C46.08460462 40.92577485 48.23297781 32.8886102 51 25 C51.38542969 23.84371094 51.77085937 22.68742187 52.16796875 21.49609375 C53.11197917 18.6640625 54.05598958 15.83203125 55 13 C61.93 13 68.86 13 76 13 C77.35388657 17.01515216 78.70568365 21.03090336 80.05273438 25.04833984 C80.50928944 26.40809384 80.96693038 27.76748385 81.42578125 29.12646484 C89.37285019 52.67139937 89.37285019 52.67139937 90.48339844 60.33642578 C90.65387695 61.21540527 90.82435547 62.09438477 91 63 C91.66 63.33 92.32 63.66 93 64 C93.01490479 63.29649414 93.02980957 62.59298828 93.04516602 61.86816406 C93.55174436 51.1209227 96.22559385 41.11677004 98.9375 30.75 C99.62575931 28.07733635 100.31095891 25.40390413 100.99549866 22.73028564 C101.41891867 21.08106535 101.84501626 19.43252905 102.2743988 17.78485107 C103.47581746 13.15695038 104.56666048 8.5215837 105.54737854 3.84161377 C106 2 106 2 107 0 C114.59 0 122.18 0 130 0 C128.87441887 10.13023016 128.87441887 10.13023016 127.51171875 15.109375 C127.21958496 16.18678955 126.92745117 17.2642041 126.62646484 18.37426758 C126.31660645 19.48825928 126.00674805 20.60225098 125.6875 21.75 C125.36990723 22.91233154 125.05231445 24.07466309 124.72509766 25.2722168 C123.19976032 30.81744546 121.62855575 36.33534437 119.875 41.8125 C117.97874336 47.79606612 116.5661053 53.86068994 115.1472168 59.97070312 C113.125514 68.61914106 110.91686612 77.21579878 108.6875 85.8125 C108.50465454 86.51791931 108.32180908 87.22333862 108.13342285 87.95013428 C107.09162073 91.96745921 106.0462313 95.9838218 105 100 C97.74 100 90.48 100 83 100 C81.36041822 95.00649386 79.72350769 90.01225243 78.09277344 85.01586914 C77.53954629 83.32333382 76.98490459 81.63126007 76.42871094 79.93969727 C67 51.25361011 67 51.25361011 67 44 C66.01 44 65.02 44 64 44 C63.99597168 44.58378418 63.99194336 45.16756836 63.98779297 45.76904297 C63.53897553 55.43769724 60.27254107 64.07146058 57.125 73.125 C56.57569329 74.73268739 56.0275085 76.34075858 55.48046875 77.94921875 C54.46931479 80.91796312 53.45150507 83.88423582 52.42626953 86.84814453 C50.9234671 91.22278646 49.46273399 95.61179804 48 100 C41.07 100 34.14 100 27 100 C20.78716216 80.67117117 20.78716216 80.67117117 18.70703125 71.94921875 C16.72045323 63.66266403 14.48576388 55.44360154 11.9375 47.3125 C10.39031341 42.37109786 9.07384937 37.41689933 7.8515625 32.38671875 C6.77734968 28.11450537 5.6146871 23.86982595 4.4375 19.625 C4.22746338 18.86356689 4.01742676 18.10213379 3.80102539 17.31762695 C2.90189721 14.09050696 1.97523202 10.93064965 0.84765625 7.7734375 C0 5 0 5 0 0 Z " fill="#F9F9F9" transform="translate(85,41)"/>
<path d="M0 0 C6.93 0 13.86 0 21 0 C21 33 21 66 21 100 C14.4 100 7.8 100 1 100 C1 97.69 1 95.38 1 93 C0.49210937 93.48210937 -0.01578125 93.96421875 -0.5390625 94.4609375 C-1.22742188 95.09257812 -1.91578125 95.72421875 -2.625 96.375 C-3.29789062 97.00148438 -3.97078125 97.62796875 -4.6640625 98.2734375 C-11.44979029 103.28897543 -19.94907433 102.81676058 -28 102 C-34.1427883 100.07938661 -38.82337918 96.91367155 -43 92 C-44.1446875 90.6696875 -44.1446875 90.6696875 -45.3125 89.3125 C-47 87 -47 87 -47 85 C-47.66 85 -48.32 85 -49 85 C-53.42630352 74.74441283 -55.75931275 62.81299087 -51.671875 52.046875 C-47.40245219 42.41395048 -41.45961099 35.56088387 -32 31 C-24.76108168 28.26833271 -17.46546037 27.6871318 -10.25 30.6875 C-6.09154395 32.61594431 -3.76802791 34.85997674 0 38 C0 25.46 0 12.92 0 0 Z " fill="#F9F9F9" transform="translate(417,41)"/>
<path d="M0 0 C7.0397886 5.12333072 11.82775541 10.41239935 13.75 19.0625 C15.46635531 31.56737442 14.74735821 42.84286989 7.5 53.5625 C1.80813473 60.52397933 -5.962698 64.85569526 -14.8125 66.25 C-25.74434817 67.2645503 -35.35598959 67.01143836 -44.4609375 60.296875 C-52.58713083 53.48135801 -57.63577644 45.88887055 -58.8125 35.25 C-59.70480163 23.55398474 -58.08901946 14.38750153 -50.6328125 5.1328125 C-36.63177191 -9.34895052 -16.819805 -10.43398073 0 0 Z " fill="#F9F9F9" transform="translate(268.8125,76.75)"/>
<path d="M0 0 C3.63121815 2.13601067 5.975863 4.82605799 8.2578125 8.328125 C8.93763184 9.27268555 9.61745117 10.21724609 10.31787109 11.19042969 C13.24926101 16.37759323 12.75513469 21.80069906 12.6484375 27.60546875 C12.64277771 28.7719545 12.63711792 29.93844025 12.63128662 31.14027405 C12.60897834 34.84914987 12.55878957 38.55704341 12.5078125 42.265625 C12.48774045 44.78709538 12.46949092 47.30858097 12.453125 49.83007812 C12.40913129 55.99646959 12.34013974 62.162131 12.2578125 68.328125 C5.3278125 68.328125 -1.6021875 68.328125 -8.7421875 68.328125 C-8.76796875 65.12609375 -8.79375 61.9240625 -8.8203125 58.625 C-8.85872493 55.52383633 -8.90388784 52.42283937 -8.94970703 49.32177734 C-8.97793249 47.16658487 -8.99913915 45.01128857 -9.01318359 42.85595703 C-9.03459097 39.7575967 -9.0812307 36.66048673 -9.1328125 33.5625 C-9.13404114 32.59882507 -9.13526978 31.63515015 -9.13653564 30.64227295 C-9.18729185 25.32159215 -9.18729185 25.32159215 -11.65527344 20.75097656 C-15.52284719 18.11407672 -18.03583822 18.01436838 -22.7421875 18.328125 C-27.96810179 20.17256534 -30.14684313 22.47835591 -32.7421875 27.328125 C-33.32146231 30.51560437 -33.34697363 33.64890255 -33.3515625 36.8828125 C-33.36809875 37.78436066 -33.38463501 38.68590881 -33.40167236 39.61477661 C-33.45002853 42.47762957 -33.47149566 45.3399518 -33.4921875 48.203125 C-33.52035756 50.15106819 -33.55028643 52.09898679 -33.58203125 54.046875 C-33.65907767 58.80753286 -33.69971121 63.56653268 -33.7421875 68.328125 C-40.6721875 68.328125 -47.6021875 68.328125 -54.7421875 68.328125 C-54.7421875 45.888125 -54.7421875 23.448125 -54.7421875 0.328125 C-48.4721875 0.328125 -42.2021875 0.328125 -35.7421875 0.328125 C-35.7421875 2.968125 -35.7421875 5.608125 -35.7421875 8.328125 C-35.24589844 7.85761719 -34.74960937 7.38710937 -34.23828125 6.90234375 C-24.21851491 -2.28085766 -12.86742228 -5.72781807 0 0 Z " fill="#F9F9F9" transform="translate(344.7421875,72.671875)"/>
<path d="M0 0 C-0.4577719 1.68765239 -0.9162489 3.37511352 -1.375 5.0625 C-1.75785156 6.47208984 -1.75785156 6.47208984 -2.1484375 7.91015625 C-3.07717411 11.28002166 -4.03528449 14.64027338 -5 18 C-6.01320313 17.95359375 -7.02640625 17.9071875 -8.0703125 17.859375 C-9.42184532 17.82183242 -10.77341028 17.78543494 -12.125 17.75 C-12.79015625 17.71648437 -13.4553125 17.68296875 -14.140625 17.6484375 C-19.28136227 17.54763873 -22.05405 18.77737615 -26 22 C-30.03443264 27.56473467 -30.17444096 32.78484534 -30.31640625 39.484375 C-30.33718735 40.29996887 -30.35796844 41.11556274 -30.37937927 41.95587158 C-30.44461297 44.55383105 -30.50363768 47.15188913 -30.5625 49.75 C-30.60571014 51.514333 -30.64932522 53.27865613 -30.69335938 55.04296875 C-30.80102743 59.36187968 -30.9002951 63.68086854 -31 68 C-37.93 68 -44.86 68 -52 68 C-52 45.23 -52 22.46 -52 -1 C-45.4 -1 -38.8 -1 -32 -1 C-32 1.97 -32 4.94 -32 8 C-31.45730469 7.51789063 -30.91460938 7.03578125 -30.35546875 6.5390625 C-29.64003906 5.90742187 -28.92460938 5.27578125 -28.1875 4.625 C-27.47980469 3.99851562 -26.77210938 3.37203125 -26.04296875 2.7265625 C-18.92734238 -3.28702613 -8.386857 -3.78230806 0 0 Z " fill="#F7F7F7" transform="translate(557,73)"/>
<path d="M0 0 C-0.72404774 4.04704581 -1.83446287 7.89070402 -3.0625 11.8125 C-3.42472656 12.97394531 -3.78695312 14.13539062 -4.16015625 15.33203125 C-4.43730469 16.21246094 -4.71445312 17.09289062 -5 18 C-6.01320313 17.95359375 -7.02640625 17.9071875 -8.0703125 17.859375 C-9.42184532 17.82183242 -10.77341028 17.78543494 -12.125 17.75 C-12.79015625 17.71648437 -13.4553125 17.68296875 -14.140625 17.6484375 C-19.29336605 17.54740336 -22.13938687 18.62056473 -26 22 C-29.2644813 27.11466247 -29.46724035 31.46121369 -29.51171875 37.3359375 C-29.52966995 38.21528961 -29.54762115 39.09464172 -29.56611633 40.00064087 C-29.62002812 42.79204605 -29.65405329 45.58328211 -29.6875 48.375 C-29.72069 50.27476302 -29.75518121 52.17450377 -29.79101562 54.07421875 C-29.87817886 58.71616759 -29.93840963 63.35736051 -30 68 C-36.93 68 -43.86 68 -51 68 C-51 45.56 -51 23.12 -51 0 C-44.73 0 -38.46 0 -32 0 C-32 2.64 -32 5.28 -32 8 C-31.49210937 7.52949219 -30.98421875 7.05898437 -30.4609375 6.57421875 C-21.5193905 -1.51336028 -11.77853084 -5.50542131 0 0 Z " fill="#FAFAFA" transform="translate(501,73)"/>
<path d="M0 0 C5.28097404 1.79353835 7.79895251 4.60999202 11 9 C11.97771193 11.9331358 12.13419011 13.88178994 12.125 16.9375 C12.12886719 18.21947266 12.12886719 18.21947266 12.1328125 19.52734375 C12.00930254 21.82680852 11.64420687 23.79640348 11 26 C10.34 26 9.68 26 9 26 C8.61714844 26.92039062 8.61714844 26.92039062 8.2265625 27.859375 C6.14463304 31.49280604 2.84794586 32.66069729 -1 34 C-5.7566739 35.00092173 -9.12343809 34.23250651 -13.3125 31.8125 C-17.82274216 28.68186133 -19.8619165 25.32740809 -21 20 C-21.51935187 15.31731917 -21.47923175 11.94071418 -19.3125 7.6875 C-13.34473677 0.75199138 -8.88993208 -0.73968618 0 0 Z " fill="#040404" transform="translate(406,90)"/>
<path d="M0 0 C4.55112454 2.34552831 8.21956597 4.93414522 10.0625 9.8125 C10.041875 10.864375 10.02125 11.91625 10 13 C10.05671875 13.78761719 10.1134375 14.57523438 10.171875 15.38671875 C10.48342627 21.17637978 9.89706218 24.43487002 6 29 C5.525625 29.5775 5.05125 30.155 4.5625 30.75 C0.76627784 33.78697773 -3.18891724 34.46799716 -8.015625 34.3046875 C-12.20662107 33.6611881 -14.75979196 31.42018546 -17.48046875 28.3046875 C-21.30606401 23.01100667 -21.7881115 18.39369333 -21 12 C-20.12520916 7.29799925 -17.0050319 4.37654351 -13.40625 1.41015625 C-8.97786172 -1.18505182 -4.91324043 -1.22309804 0 0 Z " fill="#060606" transform="translate(252,90)"/>
<path d="M0 0 C0.66 0.33 1.32 0.66 2 1 C-3 6 -3 6 -4.59375 7.34375 C-6.45628917 9.53740725 -6.71172999 11.36947762 -7.1875 14.1875 C-7.34605469 15.08855469 -7.50460937 15.98960938 -7.66796875 16.91796875 C-7.77753906 17.60503906 -7.88710938 18.29210937 -8 19 C-8.33 19 -8.66 19 -9 19 C-9.37497746 14.31278181 -9.48459497 10.95124198 -7.3125 6.6875 C-5.05931346 4.06893185 -2.7961879 2.01946904 0 0 Z " fill="#3E3E3E" transform="translate(394,91)"/>
<path d="M0 0 C0.99 0 1.98 0 3 0 C3.33 2.64 3.66 5.28 4 8 C3.01 7.34 2.02 6.68 1 6 C0.01 6.495 0.01 6.495 -1 7 C-0.67 4.69 -0.34 2.38 0 0 Z " fill="#4F4F4F" transform="translate(149,85)"/>
<path d="M0 0 C0.66 0.33 1.32 0.66 2 1 C-0.31 3.64 -2.62 6.28 -5 9 C-5.99 8.34 -6.98 7.68 -8 7 C-5.36 4.69 -2.72 2.38 0 0 Z " fill="#DBDBDB" transform="translate(477,74)"/>
<path d="M0 0 C1.37432457 3.81756824 0.67975039 7.07255329 0 11 C-0.99 10.67 -1.98 10.34 -3 10 C-3 9.34 -3 8.68 -3 8 C-2.34 8 -1.68 8 -1 8 C-1.020625 7.05125 -1.04125 6.1025 -1.0625 5.125 C-1 2 -1 2 0 0 Z " fill="#424242" transform="translate(178,94)"/>
<path d="M0 0 C0 0.66 0 1.32 0 2 C-1.95927063 3.7143618 -3.95880212 5.38405168 -6 7 C-6 5.68 -6 4.36 -6 3 C-2.78571429 0 -2.78571429 0 0 0 Z " fill="#2C2C2C" transform="translate(481,91)"/>
<path d="M0 0 C0.33 1.32 0.66 2.64 1 4 C0.34 4 -0.32 4 -1 4 C-1 4.66 -1 5.32 -1 6 C-2.98 6.99 -2.98 6.99 -5 8 C-3.8141763 4.62496331 -2.72426311 2.35277269 0 0 Z " fill="#D4D4D4" transform="translate(220,80)"/>
</svg>
