<svg width="1468" height="200" viewBox="0 0 1468 200" fill="none" xmlns="http://www.w3.org/2000/svg">
<path d="M44.3943 21.1148C44.3943 19.1235 42.1874 17.9447 40.5778 19.1172C18.4615 35.2275 3.20521 60.1882 0.015243 88.7931C-0.14695 90.2475 1.0063 91.5 2.46973 91.5H33.8943C39.6933 91.5 44.3943 86.799 44.3943 81V21.1148Z" fill="black"/>
<path d="M2.46972 108.5C1.00629 108.5 -0.146487 109.757 0.015776 111.212C5.58864 161.163 47.956 200 99.3943 200C111.866 200 123.805 197.717 134.815 193.546C135.772 193.183 136.394 192.26 136.394 191.237V119C136.394 113.201 131.693 108.5 125.894 108.5L2.46972 108.5Z" fill="black"/>
<path d="M153.394 179.602C153.394 181.58 155.575 182.762 157.189 181.618C179.856 165.537 195.534 140.251 198.773 111.207C198.936 109.753 197.782 108.5 196.319 108.5H163.894C158.095 108.5 153.394 113.201 153.394 119V179.602Z" fill="black"/>
<path d="M196.319 91.5C197.782 91.5 198.935 90.2427 198.773 88.7883C193.2 38.8373 150.833 0 99.3943 0C86.5344 0 74.2415 2.42743 62.9488 6.84909C62.005 7.21863 61.3943 8.1346 61.3943 9.14816V81C61.3943 86.799 66.0953 91.5 71.8943 91.5L196.319 91.5Z" fill="black"/>
<path d="M325.784 166.33C295.074 166.33 274.539 148.94 271.394 120.82H294.889C298.219 140.43 310.799 146.535 326.524 146.535C340.584 146.535 353.534 140.43 353.534 126.74C353.534 114.715 343.359 108.61 328.004 105.095L313.944 102.135C291.004 97.325 273.614 85.67 273.614 62.73C273.614 37.385 297.109 23.8801 322.824 23.8801C348.354 23.8801 370.184 40.16 373.144 65.505H349.834C347.059 50.15 335.034 44.045 321.529 44.045C306.914 44.045 296.554 50.89 296.554 61.805C296.554 72.905 305.434 78.27 318.569 81.045L332.259 84.005C357.419 89.37 376.474 100.47 376.474 124.705C376.474 151.9 353.349 166.33 325.784 166.33Z" fill="black"/>
<path d="M430.593 166.145C409.688 166.145 398.218 155.045 398.218 127.48V81.23H382.123V64.395H398.218V43.675L420.788 28.6901V64.395H443.728V81.23H420.788V124.89C420.788 138.395 423.748 147.275 436.328 147.275C438.363 147.275 440.768 146.905 443.543 146.535V165.035C439.473 165.96 434.663 166.145 430.593 166.145Z" fill="black"/>
<path d="M519.943 126.74V112.125C512.913 115.27 502.553 117.675 496.448 119.34C482.018 123.41 477.948 127.48 477.948 135.065C477.948 143.945 485.163 149.495 495.338 149.495C509.953 149.495 519.943 142.835 519.943 126.74ZM520.683 163.925V151.9C515.133 160.41 504.588 166.33 489.233 166.33C467.403 166.33 454.638 151.9 454.638 136.175C454.638 115.64 473.508 108.055 500.333 103.615C514.208 101.21 519.018 99.175 519.018 91.96C519.018 83.265 511.618 78.27 500.518 78.27C486.828 78.27 477.578 85.855 476.838 97.88H457.043C457.413 77.9 474.063 61.62 500.148 61.62C523.273 61.62 541.218 69.945 541.218 99.36V163.925H520.683Z" fill="black"/>
<path d="M585.091 105.095V163.925H562.521V64.395H585.091V76.79C591.196 66.245 601.001 61.99 613.396 61.99C628.381 61.99 637.816 68.095 642.811 79.195C649.471 67.725 662.236 61.99 675.001 61.99C698.126 61.99 708.486 76.79 708.486 101.025V163.925H685.916V105.095C685.916 87.89 678.701 80.305 667.046 80.305C655.391 80.305 646.881 87.89 646.881 105.095V163.925H624.311V105.095C624.311 87.89 617.096 80.305 605.256 80.305C593.601 80.305 585.091 87.89 585.091 105.095Z" fill="black"/>
<path d="M782.049 148.015C798.514 148.015 810.724 135.065 810.724 114.16C810.724 93.255 798.514 80.305 782.049 80.305C765.584 80.305 753.004 93.255 753.004 114.16C753.004 135.065 765.584 148.015 782.049 148.015ZM729.729 200V64.395H752.299V77.715C758.959 66.985 772.464 61.99 784.304 61.99C810.204 61.99 832.034 82.895 832.034 114.16C832.034 145.425 810.204 166.33 784.304 166.33C772.464 166.33 758.959 161.335 752.299 150.605V200H729.729Z" fill="black"/>
<path d="M847.999 163.925V26.1001H882.594L917.559 137.47L951.969 26.1001H986.749V163.925H964.734V50.52L929.214 163.925H905.719L870.014 50.52V163.925H847.999Z" fill="black"/>
<path d="M1021.95 200L1036.94 161.89L999.199 64.395H1023.99L1049.33 135.25L1075.97 64.395H1098.91L1045.08 200H1021.95Z" fill="black"/>
<path d="M1152.86 163.925L1100.5 26.1001H1125.85L1165.62 133.03L1204.47 26.1001H1229.45L1177.28 163.925H1152.86Z" fill="black"/>
<path d="M1242.65 163.925V68.9891H1265.22V163.925H1242.65Z" fill="black"/>
<path d="M1326.38 166.33C1303.44 166.33 1285.5 156.155 1281.98 131.735H1303.44C1305.66 143.205 1313.99 149.125 1326.94 149.125C1336.74 149.125 1346.36 145.055 1346.36 136.73C1346.36 128.59 1339.52 125.075 1328.6 123.04L1315.47 120.45C1297.15 117.12 1283.83 107.5 1283.83 90.665C1283.83 73.46 1301.04 61.435 1322.87 61.435C1343.22 61.435 1361.9 69.76 1365.05 93.07H1344.33C1341.74 82.71 1333.6 78.27 1322.68 78.27C1312.88 78.27 1304.55 82.525 1304.55 89.74C1304.55 96.215 1309.18 100.47 1319.72 102.505L1331.93 104.725C1351.17 108.425 1367.82 115.455 1367.82 134.325C1367.82 154.86 1349.14 166.33 1326.38 166.33Z" fill="black"/>
<path d="M1446.24 126.74V112.125C1439.21 115.27 1428.85 117.675 1422.74 119.34C1408.31 123.41 1404.24 127.48 1404.24 135.065C1404.24 143.945 1411.46 149.495 1421.63 149.495C1436.25 149.495 1446.24 142.835 1446.24 126.74ZM1446.98 163.925V151.9C1441.43 160.41 1430.88 166.33 1415.53 166.33C1393.7 166.33 1380.93 151.9 1380.93 136.175C1380.93 115.64 1399.8 108.055 1426.63 103.615C1440.5 101.21 1445.31 99.175 1445.31 91.96C1445.31 83.265 1437.91 78.27 1426.81 78.27C1413.12 78.27 1403.87 85.855 1403.13 97.88H1383.34C1383.71 77.9 1400.36 61.62 1426.44 61.62C1449.57 61.62 1467.51 69.945 1467.51 99.36V163.925H1446.98Z" fill="black"/>
<path d="M1242.65 57.0016V41.8665L1265.22 33.8665V57.0016H1242.65Z" fill="black"/>
</svg>
